<svg width="518" height="497" viewBox="0 0 518 497" fill="none" xmlns="http://www.w3.org/2000/svg">
<path d="M422.022 398.571C406.01 417.63 385.767 433.787 360.274 442.879C359.158 443.279 358.03 443.664 356.893 444.034C342.54 448.721 326.565 451.184 308.8 450.732C307.398 450.696 306.096 450.235 305.026 449.473C304.401 449.028 303.855 448.485 303.407 447.86C302.697 446.859 302.252 445.657 302.163 444.356C301.172 429.425 301.52 389.406 327.638 349.558C328.235 348.651 328.839 347.744 329.464 346.84C340.235 331.129 355.106 315.534 375.569 301.607C376.273 301.13 376.984 300.651 377.706 300.178C391.197 291.241 407.056 283.026 425.686 275.949C426.473 275.649 427.268 275.348 428.076 275.054C442.46 269.73 458.469 265.083 476.279 261.294C476.617 261.221 476.95 261.224 477.264 261.285C478.069 261.433 478.739 261.98 479.059 262.711C479.239 263.12 479.309 263.59 479.23 264.079C478.361 269.503 476.312 280.824 472.419 295.336C472.209 296.122 471.989 296.917 471.767 297.718C468.2 310.662 463.203 325.914 456.335 341.692C456.005 342.453 455.67 343.212 455.332 343.97C447.39 361.801 437.049 380.19 423.668 396.572C423.135 397.239 422.586 397.906 422.022 398.571Z" fill="#283773"/>
<path d="M344.076 436.348C348.436 438.241 353.853 440.467 360.274 442.876C359.158 443.276 358.03 443.661 356.893 444.032C351.512 441.972 346.905 440.067 343.098 438.41C332.702 433.887 326.431 430.475 324.144 429.173C317.742 435.981 311.355 442.767 305.026 449.471C304.401 449.025 303.855 448.482 303.407 447.857C312.184 438.547 336.839 412.319 342.857 405.894C341.336 401.674 332.982 377.825 327.635 349.555C328.232 348.648 328.836 347.741 329.461 346.837C334.397 374.021 342.339 397.549 344.616 404.01C352.405 395.698 360.131 387.435 367.716 379.308C367.737 379.247 382.999 362.933 390.029 355.385C388.194 351.248 378.935 329.312 375.569 301.601C376.273 301.125 376.984 300.645 377.706 300.172C380.724 326.497 389.239 347.759 391.733 353.556C398.199 346.612 404.477 339.86 410.498 333.377C410.522 333.271 423.049 319.866 428.476 314.011C424.421 300.13 424.735 285.581 425.683 275.943C426.47 275.643 427.265 275.343 428.073 275.048C427.098 284.143 426.589 298.349 430.299 312.042C454.615 285.82 472.215 266.745 477.264 261.279C478.069 261.428 478.739 261.974 479.059 262.705C475.367 266.703 464.429 278.567 448.786 295.461C455.597 296.626 464.535 296.186 472.422 295.331C472.212 296.116 471.992 296.911 471.77 297.712C463.414 298.579 453.993 298.931 446.957 297.433C441.948 302.845 436.485 308.739 430.649 315.033C430.646 315.036 430.646 315.036 430.643 315.039C425.281 320.815 419.607 326.934 413.677 333.316C418.516 335.492 434.518 341.841 456.338 341.686C456.008 342.447 455.673 343.206 455.335 343.964C432.515 343.916 416.071 336.96 412.04 335.073C405.699 341.898 399.074 349.015 392.251 356.344C392.239 356.359 392.227 356.371 392.212 356.384C385.261 363.852 378.09 371.539 370.786 379.366C376.282 382.059 397.001 391.609 423.671 396.563C423.125 397.233 422.577 397.901 422.016 398.565C394.593 393.296 373.63 383.34 369.158 381.11C355.003 396.272 340.348 411.922 325.751 427.453C328.342 428.903 334.485 432.18 344.076 436.348Z" fill="white"/>
<path d="M369.557 322.244C390.773 328.135 414.504 293.122 420.958 276.48C423.125 270.889 424.028 259.119 420.455 255.688C415.565 250.998 401.147 259.395 398.105 256.17C394.111 251.942 418.196 238.342 421.628 221.03C423.54 211.389 418.662 201.136 411.144 204.621C405.83 207.085 404.592 212.736 400.644 211.195C394.486 208.792 406.166 197.802 407.888 182.382C408.906 173.276 404.583 162.273 394.413 158.351C385.261 154.823 375.158 159.197 370.77 165.941C359.603 183.104 380.032 205.698 374.31 207.852C366.902 210.643 369.755 200.778 362.652 195.175C359.222 192.469 351.856 195.072 350.704 206.378C348.915 223.915 366.88 245.31 363.582 248.781C359.564 253.006 351.762 240.032 345.732 240.927C342.366 241.427 333.003 253.458 341.061 281.531C348.796 308.475 360.222 319.65 369.557 322.244Z" fill="#6A749E"/>
<path d="M359.838 364.568C359.792 364.562 359.746 364.55 359.701 364.537C359.176 364.38 358.881 363.828 359.039 363.306C380.828 291.93 386.861 208.58 388.444 176.061C388.489 175.105 388.52 174.477 388.538 174.201C388.575 173.658 389.047 173.245 389.596 173.282C390.133 173.321 390.556 173.788 390.517 174.335C390.498 174.604 390.468 175.22 390.422 176.155C388.837 208.75 382.791 292.291 360.935 363.879C360.792 364.356 360.32 364.641 359.838 364.568Z" fill="white"/>
<path d="M384.005 240.144C383.791 240.111 383.587 240.008 383.429 239.838C383.057 239.437 383.084 238.812 383.486 238.442L405.696 218.066C406.098 217.696 406.726 217.723 407.098 218.124C407.47 218.524 407.443 219.149 407.04 219.519L384.831 239.895C384.599 240.108 384.294 240.19 384.005 240.144Z" fill="white"/>
<path d="M383.087 248.866C382.831 248.826 382.587 248.687 382.426 248.456L364.92 223.608C364.606 223.162 364.716 222.547 365.164 222.234C365.612 221.922 366.231 222.028 366.545 222.477L384.05 247.324C384.365 247.77 384.255 248.386 383.807 248.699C383.59 248.85 383.331 248.902 383.087 248.866Z" fill="white"/>
<path d="M388.035 197.954C387.736 197.908 387.462 197.726 387.31 197.438L377.615 179.079C377.359 178.597 377.548 177.999 378.032 177.747C378.517 177.492 379.118 177.68 379.371 178.163L389.066 196.522C389.322 197.004 389.133 197.602 388.648 197.854C388.453 197.954 388.239 197.984 388.035 197.954Z" fill="white"/>
<path d="M377.145 290.043C376.923 290.009 376.712 289.9 376.554 289.718C376.191 289.309 376.234 288.684 376.645 288.326L402.742 265.565C403.153 265.207 403.781 265.247 404.141 265.656C404.504 266.066 404.461 266.691 404.05 267.049L377.953 289.809C377.721 290.013 377.423 290.085 377.145 290.043Z" fill="white"/>
<path d="M374.313 305.095C374.063 305.056 373.828 304.922 373.667 304.704L349.707 272.3C349.381 271.86 349.479 271.244 349.918 270.919C350.357 270.595 350.978 270.692 351.305 271.129L375.264 303.533C375.59 303.973 375.493 304.589 375.054 304.913C374.831 305.077 374.566 305.135 374.313 305.095Z" fill="white"/>
<path d="M67.6348 348.087C82.7014 367.896 102.137 385.005 127.157 395.313C128.252 395.768 129.358 396.205 130.477 396.629C144.586 401.999 160.421 405.229 178.189 405.63C179.591 405.66 180.914 405.263 182.018 404.553C182.661 404.137 183.234 403.622 183.713 403.018C184.472 402.05 184.975 400.876 185.128 399.578C186.841 384.71 188.442 344.722 164.287 303.666C163.735 302.732 163.174 301.798 162.595 300.863C152.601 284.652 138.504 268.362 118.74 253.464C118.06 252.955 117.371 252.442 116.676 251.932C103.634 242.356 88.192 233.388 69.9274 225.425C69.1561 225.089 68.3756 224.752 67.583 224.418C53.4737 218.409 37.709 212.997 20.103 208.356C19.7676 208.265 19.4353 208.253 19.1182 208.301C18.3073 208.41 17.6122 208.923 17.2555 209.639C17.0543 210.039 16.9628 210.503 17.0177 210.998C17.6213 216.458 19.1182 227.861 22.301 242.547C22.4718 243.341 22.6516 244.145 22.8376 244.958C25.7735 258.057 30.0233 273.534 36.1146 289.624C36.4073 290.401 36.706 291.174 37.0048 291.948C44.0716 310.14 53.5073 329.003 66.0739 346.009C66.5891 346.703 67.1043 347.398 67.6348 348.087Z" fill="#6A749E"/>
<path d="M143.653 389.567C139.209 391.248 133.687 393.214 127.157 395.31C128.252 395.765 129.358 396.202 130.477 396.626C135.953 394.828 140.644 393.147 144.528 391.676C155.132 387.659 161.561 384.55 163.909 383.361C169.976 390.468 176.024 397.552 182.018 404.553C182.661 404.138 183.234 403.622 183.713 403.018C175.399 393.299 152.046 365.912 146.345 359.205C148.068 355.064 157.571 331.642 164.287 303.664C163.735 302.729 163.174 301.795 162.595 300.861C156.342 327.774 147.269 350.893 144.681 357.239C137.306 348.563 129.989 339.939 122.81 331.457C122.791 331.396 108.341 314.366 101.685 306.491C103.719 302.444 114.033 280.982 118.743 253.465C118.063 252.955 117.374 252.442 116.679 251.933C112.383 278.082 102.847 298.91 100.076 304.58C93.954 297.333 88.0121 290.286 82.3111 283.521C82.2928 283.415 70.4305 269.421 65.2934 263.314C70.0158 249.645 70.4122 235.096 69.9305 225.426C69.1592 225.089 68.3787 224.752 67.586 224.418C68.1196 233.549 67.9366 247.765 63.5679 261.264C40.5535 233.904 23.8986 214.004 19.1243 208.301C18.3134 208.41 17.6183 208.923 17.2616 209.639C20.7554 213.81 31.1026 226.187 45.91 243.815C39.0505 244.652 30.1422 243.785 22.3071 242.547C22.4779 243.342 22.6577 244.146 22.8437 244.959C31.1483 246.227 40.5413 247.03 47.6416 245.875C52.3823 251.52 57.5529 257.672 63.074 264.237C63.077 264.24 63.0771 264.24 63.0801 264.243C68.1561 270.27 73.5248 276.653 79.1375 283.315C74.1986 285.256 57.9065 290.826 36.1207 289.624C36.4134 290.401 36.7121 291.175 37.0109 291.948C59.8058 292.998 76.5705 286.84 80.6862 285.15C86.689 292.27 92.9571 299.699 99.4172 307.349C99.4294 307.365 99.4386 307.38 99.4538 307.389C106.036 315.182 112.822 323.206 119.74 331.375C114.118 333.802 92.9601 342.341 66.08 346.009C66.5922 346.703 67.1074 347.398 67.6348 348.087C95.2832 344.14 116.703 335.206 121.279 333.195C134.681 349.018 148.559 365.357 162.385 381.571C159.732 382.888 153.437 385.866 143.653 389.567Z" fill="white"/>
<path d="M189.96 422.754C189.722 423.176 189.484 423.576 189.24 423.964C183.152 433.675 150.159 470.514 96.96 437.491C90.0304 433.19 83.869 428.169 78.3875 422.675H78.3814L78.2412 422.53C77.2625 421.556 76.3052 420.555 75.3784 419.542C64.5557 407.85 56.6078 394.4 50.8122 381.492H50.8061L50.483 380.755C50.1781 380.078 49.8824 379.399 49.5958 378.728L49.4891 378.48C40.7882 358.14 37.3432 339.614 36.2121 332.16C36.1329 331.648 36.1512 331.135 36.264 330.653C36.456 329.712 36.9652 328.863 37.7121 328.25C38.1023 327.929 38.5505 327.671 39.0535 327.501C45.0563 325.468 58.7083 321.31 75.7931 319.134L75.8662 319.128C87.9573 317.59 101.762 317.044 115.792 318.949L115.831 318.955C116.975 319.107 118.118 319.277 119.261 319.474C129.291 321.118 139.373 324.085 148.958 328.881C154.802 331.809 159.991 334.933 164.58 338.197V338.203C164.607 338.215 164.631 338.231 164.653 338.249C166.272 339.399 167.82 340.579 169.293 341.768C204.194 369.889 199.063 406.822 189.96 422.754Z" fill="#283773"/>
<path d="M189.96 422.754L188.46 425.129L148.455 400.297L145.977 398.759L100.213 370.353L97.649 368.76L36.2701 330.659C36.4621 329.718 36.9713 328.869 37.7182 328.256L77.7107 353.077L80.2746 354.669L124.386 382.056L126.886 383.603L166.686 408.311L169.147 409.837L189.96 422.754Z" fill="white"/>
<path d="M75.8632 319.128C83.43 337.066 81.1648 350.82 80.2716 354.669C80.1374 355.255 80.0368 355.616 80.0002 355.725L78.6527 355.319L77.3022 354.918C77.3113 354.876 77.4973 354.236 77.7076 353.08C78.546 348.484 79.8417 335.701 72.906 319.535L75.8632 319.128Z" fill="white"/>
<path d="M119.264 319.477C127.063 334.675 129.401 348.557 129.773 358.683C130.245 371.457 127.828 380.561 126.877 383.6C126.669 384.249 126.535 384.619 126.508 384.692L123.862 383.719C123.871 383.691 124.081 383.118 124.383 382.05C125.38 378.619 127.389 370.089 126.95 358.649C126.557 348.463 124.105 334.354 115.795 318.952L119.264 319.477Z" fill="white"/>
<path d="M75.3754 419.545C115.264 424.286 140.276 403.973 145.974 398.756C146.766 398.034 147.181 397.597 147.22 397.564L149.278 399.478C149.226 399.535 148.946 399.824 148.455 400.3C146.099 402.563 138.766 409.049 126.794 414.567C115.917 419.584 99.3959 424.495 78.3814 422.678L75.3754 419.545Z" fill="white"/>
<path d="M169.296 341.771C173.494 351.891 176.262 365.014 174.991 381.54C173.912 395.607 170.366 406.434 169.14 409.831C168.903 410.477 168.756 410.857 168.723 410.935L166.101 409.895C166.116 409.871 166.329 409.319 166.683 408.305C167.997 404.486 171.201 394.157 172.189 381.24C173.094 369.379 172.22 353.341 164.583 338.2L169.296 341.771Z" fill="white"/>
<path d="M49.4861 378.48C76.4485 382.281 92.8474 372.276 97.646 368.757C98.5972 368.059 99.091 367.62 99.1246 367.592L101.042 369.649C100.96 369.728 100.689 369.974 100.213 370.35C96.4021 373.432 79.796 385.108 50.8031 381.495L49.4861 378.48Z" fill="white"/>
<path d="M158.979 279.717V279.723L158.894 279.735C158.543 279.802 158.205 279.859 157.869 279.905C157.54 279.95 157.168 279.996 156.76 280.035C146.004 281.082 109.21 278.458 102.262 231.229C101.323 224.84 101.216 218.545 101.746 212.427C101.847 211.283 101.966 210.136 102.109 209.005C103.67 196.492 107.783 184.797 112.661 174.671C112.7 174.58 112.746 174.486 112.792 174.389L113.816 172.323C121.737 156.634 131.236 145.049 135.196 140.544C135.446 140.262 135.733 140.031 136.044 139.846C136.745 139.446 137.565 139.3 138.352 139.446C138.748 139.513 139.132 139.649 139.489 139.867C143.568 142.288 152.281 147.849 161.723 156.176L163.488 157.753C170.628 164.254 178.052 172.299 184.094 181.733L184.259 182.003L185.469 183.957L185.554 184.096C189.701 190.992 193.072 198.588 195.069 206.824C196.286 211.85 197.054 216.574 197.417 221.021V221.027C197.557 222.619 197.636 224.179 197.667 225.698C198.459 261.167 173.344 277.032 158.979 279.717Z" fill="#283773"/>
<path d="M158.979 279.717V279.723L158.894 279.735L156.76 280.038L151.345 243.178L151.007 240.887L144.806 198.724L144.455 196.361L136.047 139.846C136.748 139.446 137.568 139.3 138.355 139.446L143.769 176.291L144.12 178.654L150.095 219.304L150.434 221.6L155.83 258.276L156.159 260.539L158.979 279.717Z" fill="white"/>
<path d="M163.488 157.759C156.452 171.528 146.919 177.222 144.114 178.66C143.687 178.879 143.419 179.003 143.333 179.04L142.888 178.017L142.437 176.998C142.468 176.983 142.952 176.764 143.766 176.297C146.995 174.444 155.443 168.662 161.723 156.182L163.488 157.759Z" fill="white"/>
<path d="M185.554 184.096C180.308 196.598 173.055 205.134 167.083 210.555C159.549 217.399 152.766 220.614 150.428 221.6C149.928 221.809 149.632 221.919 149.574 221.94L148.809 219.847C148.83 219.838 149.287 219.671 150.092 219.307C152.693 218.145 158.918 214.978 165.656 208.841C171.656 203.375 178.988 194.656 184.094 181.739L185.554 184.096Z" fill="white"/>
<path d="M102.106 209.014C119.697 235.491 144.9 240.138 151.001 240.893C151.848 241 152.327 241.027 152.367 241.033L152.257 243.254C152.193 243.25 151.876 243.229 151.336 243.181C148.748 242.923 141.038 241.834 131.532 237.447C122.892 233.467 111.423 226.032 101.743 212.433L102.106 209.014Z" fill="white"/>
<path d="M197.667 225.698C193.661 233.422 187.094 241.831 176.381 249.545C167.262 256.116 158.854 259.535 156.156 260.542C155.641 260.73 155.333 260.836 155.269 260.857L154.555 258.743C154.577 258.74 155.025 258.585 155.821 258.276C158.821 257.108 166.753 253.734 175.122 247.701C182.808 242.158 192.121 233.398 197.417 221.024L197.667 225.698Z" fill="white"/>
<path d="M113.816 172.329C125.343 190.534 139.852 195.281 144.455 196.364C145.37 196.58 145.888 196.649 145.925 196.655L145.656 198.867C145.565 198.858 145.275 198.821 144.806 198.727C140.974 198.014 125.34 193.998 112.658 174.668L113.816 172.329Z" fill="white"/>
<path d="M134.154 375.446C133.882 375.504 133.59 375.401 133.419 375.161C115.892 350.617 102.539 324.364 93.7315 297.138C86.6829 275.354 82.5154 252.9 81.3386 230.403C80.2929 210.382 81.8599 194.031 83.3568 183.839C84.9848 172.778 86.8872 166.359 86.9085 166.296C87.0213 165.916 87.4238 165.704 87.8018 165.816C88.1829 165.929 88.3963 166.326 88.2835 166.705C88.2073 166.957 80.7716 192.302 82.7745 230.397C83.9483 252.764 88.1006 275.088 95.1095 296.744C103.871 323.815 117.154 349.922 134.587 374.336C134.815 374.657 134.739 375.103 134.416 375.331C134.34 375.388 134.248 375.425 134.154 375.446Z" fill="#FFD500"/>
<path d="M83.8934 183.095C83.8934 183.095 81.1983 173.215 81.8142 166.714C82.4544 159.962 87.4481 155.885 92.3169 157.119C97.1947 158.357 98.3349 163.147 96.5423 168.501C94.6918 174.022 89.2103 179.039 83.8934 183.095Z" fill="#FFD500"/>
<path d="M82.4117 197.575C82.4117 197.575 87.3049 190.276 91.8169 186.909C96.5058 183.411 101.835 184.063 103.679 187.694C105.527 191.334 103.067 194.775 98.652 196.774C94.1004 198.839 87.9024 198.436 82.4117 197.575Z" fill="#FFD500"/>
<path d="M82.4118 197.614C82.4118 197.614 78.8997 189.663 75.0766 185.61C71.1073 181.4 65.7995 181.13 63.3758 184.354C60.946 187.588 62.7539 191.362 66.7141 194.065C70.7994 196.852 76.912 197.517 82.4118 197.614Z" fill="#FFD500"/>
<path d="M81.7898 222.795C81.7898 222.795 76.8327 214.705 72.1103 210.874C67.205 206.894 61.4247 207.367 59.2754 211.204C57.1199 215.051 59.626 218.87 64.2996 221.221C69.1226 223.648 75.8297 223.484 81.7898 222.795Z" fill="#FFD500"/>
<path d="M83.3873 247.658C83.3873 247.658 77.4698 240.223 72.3084 236.989C66.9458 233.631 61.2631 234.802 59.5954 238.876C57.9248 242.959 60.882 246.451 65.8147 248.219C70.9091 250.046 77.5521 249.066 83.3873 247.658Z" fill="#FFD500"/>
<path d="M88.0853 274.384C88.0853 274.384 81.0947 266.751 75.2443 263.63C69.1652 260.384 63.0831 262.083 61.5832 266.633C60.0802 271.195 63.5557 274.76 69.0463 276.313C74.7138 277.912 81.8538 276.349 88.0853 274.384Z" fill="#FFD500"/>
<path d="M96.1338 302.119C96.1338 302.119 88.628 293.313 82.2166 289.591C75.5553 285.723 68.6866 287.382 66.83 292.406C64.9672 297.445 68.7079 301.567 74.7809 303.518C81.049 305.532 89.0883 304.07 96.1338 302.119Z" fill="#FFD500"/>
<path d="M81.2289 223.044C81.2289 223.044 86.6463 214.286 91.7894 210.148C97.1338 205.85 103.402 206.39 105.719 210.564C108.042 214.75 105.304 218.882 100.222 221.415C94.9723 224.027 87.6951 223.818 81.2289 223.044Z" fill="#FFD500"/>
<path d="M83.5458 247.634C83.5458 247.634 88.4938 239.38 93.2467 235.448C98.1856 231.365 104.051 231.79 106.271 235.661C108.493 239.543 105.99 243.439 101.271 245.868C96.4021 248.38 89.5975 248.274 83.5458 247.634Z" fill="#FFD500"/>
<path d="M88.1067 274.526C88.1067 274.526 92.5242 264.567 97.3197 259.492C102.301 254.22 108.957 253.889 111.99 257.936C115.029 261.995 112.755 266.718 107.792 270.1C102.661 273.595 94.9967 274.414 88.1067 274.526Z" fill="#FFD500"/>
<path d="M96.0942 301.716C96.0942 301.716 100.539 291.056 105.502 285.568C110.658 279.865 117.703 279.359 121.011 283.578C124.328 287.807 122.032 292.867 116.85 296.568C111.499 300.384 103.396 301.434 96.0942 301.716Z" fill="#FFD500"/>
<path d="M328.9 180.305C329.373 180.602 329.842 180.902 330.311 181.205C329.842 180.905 329.373 180.602 328.9 180.305Z" fill="#26999C"/>
<path d="M331.744 182.146C332.199 182.446 332.653 182.747 333.104 183.053C332.656 182.747 332.199 182.446 331.744 182.146Z" fill="#26999C"/>
<path d="M171.131 443.519C170.558 443.197 169.982 442.876 169.415 442.548C169.985 442.879 170.558 443.197 171.131 443.519Z" fill="#26999C"/>
<path d="M334.726 184.169C335.363 184.612 335.994 185.058 336.622 185.51C335.994 185.058 335.363 184.612 334.726 184.169Z" fill="#26999C"/>
<path d="M174.32 445.257C173.747 444.954 173.174 444.65 172.607 444.341C173.174 444.65 173.747 444.954 174.32 445.257Z" fill="#26999C"/>
<path d="M338.339 186.754C338.765 187.069 339.186 187.391 339.61 187.709C339.186 187.391 338.765 187.069 338.339 186.754Z" fill="#26999C"/>
<path d="M326.043 178.542C326.513 178.824 326.976 179.112 327.443 179.397C326.976 179.112 326.51 178.824 326.043 178.542Z" fill="#26999C"/>
<path d="M315.98 173.003C316.492 173.261 317.001 173.522 317.507 173.782C317.001 173.522 316.492 173.261 315.98 173.003Z" fill="#26999C"/>
<path d="M177.558 446.919C176.985 446.634 176.415 446.349 175.847 446.055C176.415 446.349 176.985 446.634 177.558 446.919Z" fill="#26999C"/>
<path d="M308.702 169.578C309.425 169.893 310.145 170.215 310.858 170.543C310.145 170.218 309.425 169.896 308.702 169.578Z" fill="#26999C"/>
<path d="M322.068 176.243C322.784 176.643 323.498 177.05 324.205 177.462C323.498 177.05 322.784 176.643 322.068 176.243Z" fill="#26999C"/>
<path d="M312.955 171.516C313.461 171.756 313.961 172.005 314.461 172.25C313.958 172.005 313.458 171.756 312.955 171.516Z" fill="#26999C"/>
<path d="M167.997 441.717C167.418 441.374 166.839 441.034 166.265 440.685C166.842 441.034 167.421 441.374 167.997 441.717Z" fill="#26999C"/>
<path d="M318.986 174.559C319.486 174.826 319.986 175.09 320.483 175.36C319.986 175.09 319.486 174.823 318.986 174.559Z" fill="#26999C"/>
<path d="M164.924 439.851C164.339 439.487 163.75 439.123 163.171 438.75C163.753 439.123 164.339 439.484 164.924 439.851Z" fill="#26999C"/>
<path d="M357.643 203.681C358.006 204.057 358.362 204.433 358.722 204.812C358.362 204.436 358.006 204.057 357.643 203.681Z" fill="#26999C"/>
<path d="M187.557 451.476C186.984 451.239 186.411 450.999 185.841 450.757C186.408 450.999 186.981 451.239 187.557 451.476Z" fill="#26999C"/>
<path d="M354.713 200.732C355.061 201.075 355.411 201.415 355.756 201.761C355.411 201.415 355.061 201.075 354.713 200.732Z" fill="#26999C"/>
<path d="M360.237 206.435C360.567 206.793 360.89 207.154 361.216 207.515C360.89 207.154 360.567 206.793 360.237 206.435Z" fill="#26999C"/>
<path d="M362.493 208.947C362.82 209.317 363.146 209.69 363.466 210.064C363.146 209.69 362.82 209.317 362.493 208.947Z" fill="#26999C"/>
<path d="M190.978 452.841C190.402 452.619 189.826 452.395 189.252 452.164C189.826 452.395 190.402 452.619 190.978 452.841Z" fill="#26999C"/>
<path d="M184.176 450.032C183.603 449.78 183.033 449.525 182.463 449.264C183.033 449.525 183.603 449.78 184.176 450.032Z" fill="#26999C"/>
<path d="M346.585 193.306C347.11 193.752 347.631 194.201 348.149 194.656C347.631 194.201 347.11 193.752 346.585 193.306Z" fill="#26999C"/>
<path d="M180.844 448.512C180.274 448.242 179.701 447.975 179.134 447.699C179.701 447.975 180.274 448.245 180.844 448.512Z" fill="#26999C"/>
<path d="M343.68 190.895C344.085 191.222 344.491 191.547 344.89 191.881C344.488 191.547 344.082 191.222 343.68 190.895Z" fill="#26999C"/>
<path d="M352.238 198.354C352.616 198.709 352.991 199.064 353.362 199.422C352.991 199.064 352.616 198.709 352.238 198.354Z" fill="#26999C"/>
<path d="M341.009 188.78C341.436 189.111 341.863 189.445 342.287 189.778C341.863 189.445 341.439 189.111 341.009 188.78Z" fill="#26999C"/>
<path d="M349.762 196.079C350.14 196.419 350.512 196.761 350.887 197.104C350.515 196.761 350.14 196.419 349.762 196.079Z" fill="#26999C"/>
<path d="M137.894 418.492C137.239 417.843 136.593 417.182 135.946 416.52C136.593 417.185 137.239 417.843 137.894 418.492Z" fill="#26999C"/>
<path d="M113.597 387.286C113.155 386.537 112.719 385.781 112.289 385.023C112.719 385.781 113.155 386.537 113.597 387.286Z" fill="#26999C"/>
<path d="M115.462 390.368C115.008 389.637 114.56 388.903 114.118 388.163C114.56 388.9 115.008 389.637 115.462 390.368Z" fill="#26999C"/>
<path d="M111.807 384.164C111.377 383.394 110.953 382.62 110.536 381.841C110.95 382.617 111.377 383.394 111.807 384.164Z" fill="#26999C"/>
<path d="M132.889 413.296C132.297 412.652 131.718 412.003 131.139 411.351C131.718 412.003 132.297 412.655 132.889 413.296Z" fill="#26999C"/>
<path d="M135.361 415.923C134.742 415.282 134.136 414.63 133.529 413.978C134.136 414.633 134.742 415.282 135.361 415.923Z" fill="#26999C"/>
<path d="M108.444 377.794C108.039 376.978 107.639 376.162 107.246 375.337C107.639 376.159 108.039 376.978 108.444 377.794Z" fill="#26999C"/>
<path d="M364.762 211.586C365.051 211.932 365.344 212.275 365.63 212.624C365.344 212.275 365.051 211.932 364.762 211.586Z" fill="#26999C"/>
<path d="M110.088 380.997C109.67 380.206 109.258 379.411 108.853 378.613C109.258 379.411 109.67 380.206 110.088 380.997Z" fill="#26999C"/>
<path d="M117.401 393.405C116.935 392.692 116.471 391.97 116.017 391.248C116.471 391.973 116.932 392.692 117.401 393.405Z" fill="#26999C"/>
<path d="M123.636 402.235C123.127 401.565 122.624 400.885 122.124 400.206C122.621 400.885 123.124 401.565 123.636 402.235Z" fill="#26999C"/>
<path d="M121.49 399.341C120.993 398.656 120.505 397.964 120.02 397.269C120.505 397.967 120.993 398.659 121.49 399.341Z" fill="#26999C"/>
<path d="M128.133 407.875C127.587 407.222 127.05 406.564 126.514 405.903C127.05 406.564 127.587 407.222 128.133 407.875Z" fill="#26999C"/>
<path d="M119.41 396.399C118.929 395.698 118.453 394.994 117.984 394.287C118.453 394.994 118.929 395.698 119.41 396.399Z" fill="#26999C"/>
<path d="M130.48 410.614C129.913 409.968 129.355 409.316 128.8 408.66C129.355 409.316 129.913 409.968 130.48 410.614Z" fill="#26999C"/>
<path d="M100.298 358.07C96.1125 345.49 93.518 332.191 92.7559 318.403C93.518 332.191 96.1125 345.493 100.298 358.07Z" fill="#26999C"/>
<path d="M158.982 435.956C158.363 435.528 157.741 435.104 157.129 434.67C157.741 435.104 158.363 435.528 158.982 435.956Z" fill="#26999C"/>
<path d="M299.154 165.753C299.682 165.944 300.203 166.141 300.727 166.338C300.206 166.144 299.682 165.944 299.154 165.753Z" fill="#26999C"/>
<path d="M156.159 433.963C155.501 433.487 154.839 433.011 154.187 432.525C154.839 433.011 155.498 433.487 156.159 433.963Z" fill="#26999C"/>
<path d="M161.912 437.925C161.314 437.534 160.714 437.142 160.122 436.742C160.717 437.142 161.314 437.534 161.912 437.925Z" fill="#26999C"/>
<path d="M302.334 166.945C302.873 167.154 303.41 167.366 303.947 167.579C303.41 167.366 302.873 167.154 302.334 166.945Z" fill="#26999C"/>
<path d="M305.495 168.213C306.026 168.431 306.556 168.65 307.084 168.874C306.556 168.65 306.026 168.431 305.495 168.213Z" fill="#26999C"/>
<path d="M105.399 371.29C105.015 370.416 104.637 369.54 104.268 368.66C104.634 369.54 105.015 370.416 105.399 371.29Z" fill="#26999C"/>
<path d="M140.489 421.004C139.776 420.327 139.071 419.642 138.37 418.953C139.071 419.645 139.776 420.33 140.489 421.004Z" fill="#26999C"/>
<path d="M106.883 374.557C106.49 373.714 106.1 372.871 105.719 372.018C106.097 372.871 106.487 373.714 106.883 374.557Z" fill="#26999C"/>
<path d="M103.993 367.999C103.618 367.089 103.249 366.176 102.89 365.259C103.249 366.176 103.618 367.089 103.993 367.999Z" fill="#26999C"/>
<path d="M101.442 361.376C101.079 360.366 100.725 359.356 100.384 358.337C100.725 359.356 101.082 360.369 101.442 361.376Z" fill="#26999C"/>
<path d="M153.531 432.025C149.056 428.645 144.766 425.029 140.693 421.192C144.769 425.029 149.056 428.645 153.531 432.025Z" fill="#26999C"/>
<path d="M102.676 364.692C102.307 363.737 101.948 362.781 101.597 361.816C101.948 362.778 102.307 363.737 102.676 364.692Z" fill="#26999C"/>
<path d="M227.254 461.934C226.678 461.86 226.105 461.778 225.532 461.702C226.105 461.781 226.678 461.863 227.254 461.934Z" fill="#26999C"/>
<path d="M394.678 267.661C394.77 267.983 394.858 268.305 394.946 268.626C394.855 268.305 394.77 267.98 394.678 267.661Z" fill="#26999C"/>
<path d="M219.73 460.809C219.145 460.705 218.562 460.595 217.98 460.485C218.562 460.595 219.145 460.708 219.73 460.809Z" fill="#26999C"/>
<path d="M393.474 263.687C393.55 263.924 393.626 264.158 393.703 264.394C393.626 264.158 393.547 263.921 393.474 263.687Z" fill="#26999C"/>
<path d="M386.657 246.081C386.834 246.463 387.011 246.845 387.181 247.227C387.011 246.845 386.834 246.463 386.657 246.081Z" fill="#26999C"/>
<path d="M396.465 274.499C396.553 274.878 396.645 275.257 396.733 275.637C396.648 275.257 396.556 274.878 396.465 274.499Z" fill="#26999C"/>
<path d="M395.596 271.016C395.699 271.414 395.8 271.811 395.904 272.209C395.803 271.811 395.702 271.414 395.596 271.016Z" fill="#26999C"/>
<path d="M392.245 259.977C392.376 260.357 392.511 260.739 392.639 261.121C392.507 260.739 392.376 260.36 392.245 259.977Z" fill="#26999C"/>
<path d="M125.852 405.081C125.325 404.419 124.807 403.752 124.291 403.085C124.807 403.755 125.325 404.422 125.852 405.081Z" fill="#26999C"/>
<path d="M388.188 249.515C388.306 249.794 388.431 250.07 388.55 250.352C388.431 250.07 388.309 249.794 388.188 249.515Z" fill="#26999C"/>
<path d="M212.328 459.329C211.743 459.195 211.157 459.054 210.572 458.914C211.157 459.054 211.743 459.195 212.328 459.329Z" fill="#26999C"/>
<path d="M389.822 253.449C389.944 253.759 390.062 254.068 390.181 254.377C390.062 254.068 389.947 253.756 389.822 253.449Z" fill="#26999C"/>
<path d="M391.053 256.656C391.197 257.044 391.34 257.435 391.48 257.827C391.34 257.438 391.2 257.047 391.053 256.656Z" fill="#26999C"/>
<path d="M216.014 460.114C215.428 459.995 214.843 459.87 214.258 459.745C214.843 459.87 215.428 459.995 216.014 460.114Z" fill="#26999C"/>
<path d="M223.477 461.418C222.895 461.33 222.315 461.232 221.736 461.141C222.315 461.232 222.895 461.33 223.477 461.418Z" fill="#26999C"/>
<path d="M400.352 301.358C400.373 301.77 400.394 302.186 400.416 302.599C400.394 302.186 400.373 301.774 400.352 301.358Z" fill="#26999C"/>
<path d="M400.51 305.12C400.522 305.493 400.535 305.866 400.544 306.242C400.535 305.866 400.522 305.493 400.51 305.12Z" fill="#26999C"/>
<path d="M400.114 297.757C400.141 298.112 400.166 298.47 400.19 298.828C400.166 298.47 400.141 298.112 400.114 297.757Z" fill="#26999C"/>
<path d="M238.757 462.934C238.236 462.906 237.717 462.87 237.199 462.839C237.717 462.87 238.236 462.91 238.757 462.934Z" fill="#26999C"/>
<path d="M242.641 463.079C242.205 463.067 241.772 463.046 241.336 463.03C241.772 463.046 242.205 463.067 242.641 463.079Z" fill="#26999C"/>
<path d="M397.361 278.503C397.398 278.682 397.44 278.864 397.477 279.043C397.44 278.861 397.398 278.682 397.361 278.503Z" fill="#26999C"/>
<path d="M398.721 285.948C398.785 286.351 398.846 286.754 398.907 287.158C398.846 286.754 398.785 286.348 398.721 285.948Z" fill="#26999C"/>
<path d="M231.062 462.361C230.495 462.303 229.931 462.236 229.367 462.175C229.931 462.236 230.495 462.303 231.062 462.361Z" fill="#26999C"/>
<path d="M234.897 462.695C234.345 462.652 233.797 462.6 233.245 462.554C233.797 462.6 234.342 462.652 234.897 462.695Z" fill="#26999C"/>
<path d="M399.248 289.576C399.297 289.952 399.349 290.325 399.397 290.701C399.349 290.325 399.297 289.952 399.248 289.576Z" fill="#26999C"/>
<path d="M399.766 293.917C399.776 294.02 399.791 294.121 399.8 294.221C399.788 294.118 399.776 294.017 399.766 293.917Z" fill="#26999C"/>
<path d="M398.132 282.456C398.193 282.793 398.248 283.132 398.309 283.469C398.251 283.129 398.193 282.793 398.132 282.456Z" fill="#26999C"/>
<path d="M205.063 457.498C204.481 457.337 203.898 457.167 203.316 457C203.898 457.167 204.481 457.337 205.063 457.498Z" fill="#26999C"/>
<path d="M371.703 220.487C371.978 220.866 372.249 221.245 372.52 221.627C372.249 221.245 371.978 220.866 371.703 220.487Z" fill="#26999C"/>
<path d="M379.785 232.891C380.008 233.273 380.234 233.658 380.453 234.044C380.231 233.655 380.008 233.273 379.785 232.891Z" fill="#26999C"/>
<path d="M381.584 236.055C381.758 236.367 381.935 236.68 382.105 236.992C381.935 236.68 381.758 236.367 381.584 236.055Z" fill="#26999C"/>
<path d="M369.685 217.751C369.966 218.121 370.24 218.494 370.517 218.864C370.24 218.494 369.963 218.121 369.685 217.751Z" fill="#26999C"/>
<path d="M373.749 223.387C373.981 223.721 374.212 224.054 374.441 224.391C374.212 224.054 373.978 223.724 373.749 223.387Z" fill="#26999C"/>
<path d="M197.944 455.331C197.365 455.14 196.786 454.943 196.21 454.746C196.786 454.943 197.362 455.14 197.944 455.331Z" fill="#26999C"/>
<path d="M201.484 456.457C200.901 456.281 200.322 456.099 199.743 455.914C200.322 456.096 200.901 456.278 201.484 456.457Z" fill="#26999C"/>
<path d="M378.02 229.945C378.252 230.322 378.481 230.704 378.709 231.083C378.481 230.704 378.252 230.322 378.02 229.945Z" fill="#26999C"/>
<path d="M208.682 458.459C208.096 458.309 207.511 458.156 206.926 458.001C207.511 458.153 208.093 458.309 208.682 458.459Z" fill="#26999C"/>
<path d="M376.221 227.088C376.407 227.376 376.587 227.667 376.773 227.958C376.59 227.667 376.407 227.376 376.221 227.088Z" fill="#26999C"/>
<path d="M383.645 239.898C383.797 240.193 383.944 240.493 384.096 240.787C383.947 240.493 383.797 240.196 383.645 239.898Z" fill="#26999C"/>
<path d="M194.441 454.127C193.862 453.921 193.286 453.708 192.71 453.496C193.286 453.708 193.862 453.921 194.441 454.127Z" fill="#26999C"/>
<path d="M367.633 215.096C367.853 215.375 368.069 215.657 368.286 215.94C368.066 215.657 367.853 215.375 367.633 215.096Z" fill="#26999C"/>
<path d="M385.172 242.941C385.358 243.323 385.541 243.706 385.724 244.091C385.541 243.709 385.358 243.323 385.172 242.941Z" fill="#26999C"/>
<path d="M246.552 463.128C245.244 463.128 243.943 463.109 242.641 463.079C243.94 463.113 245.244 463.128 246.552 463.128Z" fill="#029094"/>
<path d="M185.838 450.754C185.283 450.517 184.728 450.274 184.176 450.032C184.728 450.274 185.283 450.517 185.838 450.754Z" fill="#029094"/>
<path d="M126.514 405.903C126.291 405.63 126.069 405.357 125.849 405.084C126.072 405.357 126.294 405.63 126.514 405.903Z" fill="#029094"/>
<path d="M199.743 455.914C199.142 455.723 198.542 455.532 197.944 455.331C198.542 455.528 199.142 455.723 199.743 455.914Z" fill="#029094"/>
<path d="M135.949 416.523C135.754 416.323 135.556 416.126 135.361 415.926C135.556 416.126 135.754 416.323 135.949 416.523Z" fill="#029094"/>
<path d="M210.575 458.917C209.944 458.764 209.31 458.615 208.682 458.453C209.31 458.615 209.941 458.767 210.575 458.917Z" fill="#029094"/>
<path d="M237.199 462.84C236.431 462.794 235.662 462.752 234.897 462.694C235.659 462.752 236.431 462.794 237.199 462.84Z" fill="#029094"/>
<path d="M128.8 408.66C128.578 408.399 128.355 408.139 128.133 407.875C128.352 408.139 128.578 408.396 128.8 408.66Z" fill="#029094"/>
<path d="M131.139 411.354C130.919 411.108 130.697 410.863 130.48 410.614C130.697 410.863 130.919 411.105 131.139 411.354Z" fill="#029094"/>
<path d="M189.252 452.164C188.685 451.937 188.121 451.706 187.557 451.476C188.118 451.709 188.685 451.937 189.252 452.164Z" fill="#029094"/>
<path d="M196.206 454.746C195.615 454.543 195.027 454.336 194.438 454.127C195.027 454.336 195.615 454.543 196.206 454.746Z" fill="#029094"/>
<path d="M133.529 413.981C133.315 413.754 133.099 413.526 132.889 413.299C133.099 413.526 133.315 413.751 133.529 413.981Z" fill="#029094"/>
<path d="M241.339 463.031C240.479 463.004 239.617 462.976 238.757 462.933C239.613 462.976 240.476 463.004 241.339 463.031Z" fill="#029094"/>
<path d="M233.245 462.555C232.516 462.494 231.788 462.433 231.062 462.36C231.788 462.433 232.516 462.491 233.245 462.555Z" fill="#029094"/>
<path d="M217.977 460.488C217.322 460.365 216.666 460.243 216.014 460.112C216.666 460.243 217.322 460.365 217.977 460.488Z" fill="#029094"/>
<path d="M138.37 418.959C138.212 418.803 138.053 418.651 137.895 418.495C138.053 418.651 138.212 418.803 138.37 418.959Z" fill="#029094"/>
<path d="M163.171 438.75C162.75 438.48 162.333 438.201 161.912 437.925C162.333 438.201 162.75 438.477 163.171 438.75Z" fill="#029094"/>
<path d="M160.125 436.742C159.741 436.484 159.363 436.217 158.982 435.953C159.363 436.217 159.741 436.484 160.125 436.742Z" fill="#029094"/>
<path d="M175.847 446.058C175.335 445.794 174.829 445.524 174.32 445.257C174.829 445.524 175.335 445.794 175.847 446.058Z" fill="#029094"/>
<path d="M214.261 459.748C213.617 459.61 212.971 459.473 212.331 459.326C212.971 459.473 213.614 459.61 214.261 459.748Z" fill="#029094"/>
<path d="M172.607 444.338C172.113 444.068 171.622 443.792 171.134 443.519C171.622 443.795 172.113 444.071 172.607 444.338Z" fill="#029094"/>
<path d="M166.265 440.682C165.814 440.409 165.369 440.127 164.924 439.848C165.372 440.127 165.817 440.409 166.265 440.682Z" fill="#029094"/>
<path d="M169.415 442.548C168.939 442.275 168.47 441.993 167.997 441.714C168.47 441.993 168.939 442.275 169.415 442.548Z" fill="#029094"/>
<path d="M221.736 461.14C221.065 461.03 220.395 460.923 219.73 460.807C220.395 460.926 221.065 461.033 221.736 461.14Z" fill="#029094"/>
<path d="M206.926 457.998C206.304 457.834 205.682 457.667 205.063 457.497C205.682 457.67 206.304 457.834 206.926 457.998Z" fill="#029094"/>
<path d="M182.463 449.264C181.92 449.018 181.381 448.764 180.844 448.512C181.384 448.767 181.92 449.018 182.463 449.264Z" fill="#029094"/>
<path d="M229.367 462.176C228.663 462.097 227.955 462.024 227.254 461.935C227.955 462.021 228.663 462.097 229.367 462.176Z" fill="#029094"/>
<path d="M140.694 421.193C140.627 421.129 140.556 421.068 140.489 421.004C140.556 421.068 140.627 421.132 140.694 421.193Z" fill="#029094"/>
<path d="M192.71 453.496C192.13 453.281 191.554 453.062 190.981 452.841C191.554 453.062 192.13 453.281 192.71 453.496Z" fill="#029094"/>
<path d="M154.187 432.525C153.967 432.361 153.751 432.191 153.531 432.025C153.751 432.191 153.967 432.361 154.187 432.525Z" fill="#029094"/>
<path d="M203.319 457C202.706 456.821 202.093 456.642 201.487 456.457C202.093 456.642 202.706 456.821 203.319 457Z" fill="#029094"/>
<path d="M225.529 461.703C224.843 461.609 224.157 461.517 223.477 461.417C224.16 461.517 224.846 461.609 225.529 461.703Z" fill="#029094"/>
<path d="M179.134 447.699C178.607 447.444 178.082 447.18 177.558 446.919C178.082 447.183 178.607 447.444 179.134 447.699Z" fill="#029094"/>
<path d="M157.129 434.67C156.802 434.439 156.482 434.2 156.156 433.966C156.482 434.197 156.802 434.436 157.129 434.67Z" fill="#029094"/>
<path d="M361.216 207.515C361.646 207.992 362.07 208.468 362.493 208.947C362.07 208.468 361.646 207.992 361.216 207.515Z" fill="#029094"/>
<path d="M378.709 231.083C379.072 231.684 379.429 232.284 379.782 232.891C379.429 232.284 379.072 231.684 378.709 231.083Z" fill="#029094"/>
<path d="M380.453 234.041C380.837 234.708 381.212 235.381 381.584 236.055C381.212 235.381 380.834 234.708 380.453 234.041Z" fill="#029094"/>
<path d="M372.52 221.627C372.935 222.21 373.34 222.798 373.749 223.39C373.343 222.798 372.935 222.21 372.52 221.627Z" fill="#029094"/>
<path d="M374.438 224.391C375.042 225.283 375.636 226.181 376.221 227.088C375.636 226.184 375.042 225.283 374.438 224.391Z" fill="#029094"/>
<path d="M376.773 227.958C377.194 228.617 377.612 229.281 378.02 229.945C377.612 229.278 377.194 228.617 376.773 227.958Z" fill="#029094"/>
<path d="M385.724 244.091C386.041 244.752 386.352 245.413 386.657 246.081C386.352 245.416 386.041 244.752 385.724 244.091Z" fill="#029094"/>
<path d="M384.096 240.79C384.459 241.506 384.819 242.222 385.172 242.944C384.819 242.222 384.459 241.506 384.096 240.79Z" fill="#029094"/>
<path d="M382.105 236.992C382.63 237.954 383.142 238.925 383.648 239.898C383.142 238.925 382.63 237.957 382.105 236.992Z" fill="#029094"/>
<path d="M365.63 212.624C366.304 213.44 366.972 214.265 367.63 215.096C366.975 214.265 366.307 213.44 365.63 212.624Z" fill="#029094"/>
<path d="M370.514 218.864C370.914 219.401 371.31 219.941 371.703 220.484C371.31 219.944 370.914 219.404 370.514 218.864Z" fill="#029094"/>
<path d="M355.756 201.761C356.39 202.395 357.018 203.038 357.643 203.684C357.018 203.038 356.39 202.395 355.756 201.761Z" fill="#029094"/>
<path d="M353.362 199.422C353.817 199.856 354.265 200.293 354.713 200.732C354.265 200.293 353.817 199.856 353.362 199.422Z" fill="#029094"/>
<path d="M358.722 204.816C359.231 205.352 359.737 205.892 360.24 206.435C359.737 205.892 359.231 205.352 358.722 204.816Z" fill="#029094"/>
<path d="M363.466 210.064C363.902 210.567 364.332 211.077 364.762 211.586C364.332 211.077 363.902 210.567 363.466 210.064Z" fill="#029094"/>
<path d="M368.286 215.936C368.755 216.537 369.222 217.141 369.682 217.751C369.222 217.144 368.755 216.54 368.286 215.936Z" fill="#029094"/>
<path d="M387.181 247.23C387.523 247.989 387.858 248.75 388.188 249.518C387.858 248.75 387.526 247.989 387.181 247.23Z" fill="#029094"/>
<path d="M390.184 254.377C390.48 255.136 390.773 255.894 391.056 256.659C390.77 255.894 390.48 255.133 390.184 254.377Z" fill="#029094"/>
<path d="M398.907 287.158C399.026 287.962 399.138 288.769 399.245 289.576C399.138 288.769 399.026 287.962 398.907 287.158Z" fill="#029094"/>
<path d="M399.8 294.22C399.919 295.394 400.022 296.574 400.117 297.757C400.022 296.574 399.919 295.394 399.8 294.22Z" fill="#029094"/>
<path d="M399.394 290.701C399.529 291.769 399.651 292.84 399.763 293.914C399.654 292.84 399.529 291.769 399.394 290.701Z" fill="#029094"/>
<path d="M397.477 279.043C397.709 280.175 397.928 281.315 398.135 282.456C397.925 281.312 397.709 280.175 397.477 279.043Z" fill="#029094"/>
<path d="M398.309 283.469C398.452 284.294 398.593 285.119 398.721 285.948C398.593 285.116 398.452 284.291 398.309 283.469Z" fill="#029094"/>
<path d="M400.19 298.828C400.251 299.671 400.306 300.515 400.352 301.361C400.306 300.512 400.251 299.668 400.19 298.828Z" fill="#029094"/>
<path d="M124.288 403.085C124.069 402.803 123.849 402.52 123.633 402.235C123.852 402.52 124.072 402.803 124.288 403.085Z" fill="#029094"/>
<path d="M400.416 302.602C400.455 303.439 400.486 304.279 400.513 305.12C400.486 304.279 400.455 303.439 400.416 302.602Z" fill="#029094"/>
<path d="M388.55 250.352C388.986 251.38 389.41 252.412 389.822 253.449C389.41 252.412 388.986 251.377 388.55 250.352Z" fill="#029094"/>
<path d="M391.483 257.827C391.742 258.54 391.995 259.258 392.245 259.977C391.995 259.258 391.742 258.543 391.483 257.827Z" fill="#029094"/>
<path d="M392.636 261.121C392.922 261.973 393.2 262.829 393.474 263.687C393.203 262.829 392.922 261.973 392.636 261.121Z" fill="#029094"/>
<path d="M350.887 197.104C351.338 197.52 351.789 197.935 352.238 198.354C351.789 197.935 351.341 197.52 350.887 197.104Z" fill="#029094"/>
<path d="M396.733 275.637C396.952 276.589 397.16 277.545 397.361 278.503C397.16 277.545 396.952 276.589 396.733 275.637Z" fill="#029094"/>
<path d="M395.904 272.212C396.096 272.973 396.285 273.734 396.465 274.502C396.285 273.734 396.096 272.97 395.904 272.212Z" fill="#029094"/>
<path d="M393.699 264.394C394.038 265.477 394.361 266.569 394.675 267.661C394.364 266.566 394.038 265.477 393.699 264.394Z" fill="#029094"/>
<path d="M394.946 268.626C395.169 269.421 395.385 270.219 395.596 271.016C395.385 270.219 395.169 269.421 394.946 268.626Z" fill="#029094"/>
<path d="M400.544 306.242C400.571 307.443 400.59 308.648 400.59 309.855C400.59 308.645 400.571 307.443 400.544 306.242Z" fill="#029094"/>
<path d="M105.719 372.018C105.612 371.775 105.505 371.533 105.399 371.29C105.505 371.533 105.609 371.775 105.719 372.018Z" fill="#029094"/>
<path d="M104.265 368.66C104.173 368.442 104.085 368.22 103.993 367.999C104.085 368.217 104.173 368.439 104.265 368.66Z" fill="#029094"/>
<path d="M107.249 375.337C107.127 375.079 107.005 374.818 106.883 374.557C107.005 374.818 107.124 375.079 107.249 375.337Z" fill="#029094"/>
<path d="M102.893 365.256C102.82 365.068 102.749 364.877 102.676 364.689C102.749 364.88 102.82 365.068 102.893 365.256Z" fill="#029094"/>
<path d="M101.597 361.818C101.545 361.672 101.493 361.526 101.442 361.38C101.493 361.523 101.545 361.672 101.597 361.818Z" fill="#029094"/>
<path d="M108.856 378.613C108.719 378.34 108.582 378.067 108.447 377.794C108.582 378.067 108.716 378.34 108.856 378.613Z" fill="#029094"/>
<path d="M100.387 358.338C100.356 358.25 100.329 358.161 100.301 358.07C100.329 358.161 100.356 358.25 100.387 358.338Z" fill="#029094"/>
<path d="M120.02 397.272C119.816 396.981 119.612 396.69 119.41 396.399C119.612 396.69 119.816 396.981 120.02 397.272Z" fill="#029094"/>
<path d="M117.984 394.287C117.789 393.993 117.593 393.702 117.401 393.408C117.593 393.702 117.789 393.993 117.984 394.287Z" fill="#029094"/>
<path d="M296.236 164.73C297.215 165.061 298.188 165.404 299.154 165.753C298.185 165.404 297.212 165.061 296.236 164.73Z" fill="#029094"/>
<path d="M122.121 400.206C121.91 399.918 121.697 399.632 121.487 399.341C121.697 399.632 121.91 399.918 122.121 400.206Z" fill="#029094"/>
<path d="M114.118 388.163C113.944 387.871 113.77 387.58 113.597 387.286C113.77 387.577 113.944 387.871 114.118 388.163Z" fill="#029094"/>
<path d="M112.289 385.023C112.127 384.738 111.966 384.45 111.807 384.164C111.966 384.45 112.127 384.738 112.289 385.023Z" fill="#029094"/>
<path d="M110.536 381.841C110.386 381.562 110.237 381.28 110.088 380.997C110.237 381.28 110.383 381.559 110.536 381.841Z" fill="#029094"/>
<path d="M116.017 391.251C115.831 390.957 115.645 390.662 115.462 390.368C115.645 390.662 115.831 390.957 116.017 391.251Z" fill="#029094"/>
<path d="M348.149 194.656C348.689 195.129 349.229 195.6 349.762 196.079C349.229 195.6 348.692 195.126 348.149 194.656Z" fill="#029094"/>
<path d="M333.107 183.053C333.65 183.42 334.189 183.796 334.729 184.169C334.186 183.796 333.65 183.42 333.107 183.053Z" fill="#029094"/>
<path d="M336.622 185.51C337.195 185.923 337.769 186.335 338.336 186.754C337.772 186.335 337.198 185.923 336.622 185.51Z" fill="#029094"/>
<path d="M330.311 181.205C330.793 181.515 331.269 181.83 331.747 182.146C331.269 181.83 330.79 181.518 330.311 181.205Z" fill="#029094"/>
<path d="M344.89 191.877C345.46 192.348 346.024 192.827 346.585 193.303C346.024 192.827 345.46 192.348 344.89 191.877Z" fill="#029094"/>
<path d="M300.73 166.338C301.267 166.538 301.8 166.739 302.334 166.945C301.8 166.739 301.264 166.538 300.73 166.338Z" fill="#029094"/>
<path d="M342.287 189.778C342.753 190.145 343.217 190.518 343.677 190.892C343.217 190.521 342.753 190.148 342.287 189.778Z" fill="#029094"/>
<path d="M339.61 187.709C340.079 188.064 340.546 188.419 341.012 188.777C340.546 188.419 340.076 188.064 339.61 187.709Z" fill="#029094"/>
<path d="M327.44 179.4C327.927 179.701 328.415 180.001 328.9 180.308C328.415 180.001 327.927 179.698 327.44 179.4Z" fill="#029094"/>
<path d="M310.861 170.546C311.562 170.867 312.26 171.189 312.955 171.519C312.26 171.186 311.559 170.864 310.861 170.546Z" fill="#029094"/>
<path d="M307.084 168.874C307.626 169.105 308.163 169.341 308.702 169.578C308.166 169.341 307.626 169.105 307.084 168.874Z" fill="#029094"/>
<path d="M324.205 177.462C324.818 177.82 325.434 178.178 326.04 178.542C325.434 178.178 324.821 177.82 324.205 177.462Z" fill="#029094"/>
<path d="M303.947 167.582C304.465 167.788 304.983 168 305.498 168.213C304.98 168 304.465 167.788 303.947 167.582Z" fill="#029094"/>
<path d="M320.483 175.36C321.013 175.651 321.541 175.945 322.068 176.243C321.541 175.945 321.013 175.651 320.483 175.36Z" fill="#029094"/>
<path d="M317.507 173.782C318.001 174.037 318.495 174.298 318.986 174.559C318.495 174.298 318.004 174.04 317.507 173.782Z" fill="#029094"/>
<path d="M314.461 172.25C314.971 172.499 315.477 172.748 315.98 173.003C315.477 172.748 314.968 172.499 314.461 172.25Z" fill="#029094"/>
<path d="M276.889 77.4159H145.604C144.079 77.4159 142.704 76.4755 142.345 75.0983C140.11 66.4921 149.201 57.2399 156.496 56.9699C165.173 56.6483 168.258 61.6173 175.24 60.9256C186.944 59.7638 178.197 44.0561 181.331 33.8513C183.181 27.8236 188.544 22.5695 194.712 21.7899C204.537 20.5462 215.391 29.3829 219.199 37.7645C221.403 42.6182 222.656 49.3587 228.491 50.6237C232.661 51.5277 236.875 44.3352 244.146 47.9269C249.719 50.6783 251.646 61.326 257.356 62.9914C260.788 63.9925 263.282 61.0621 267.996 61.9631C275.334 63.3676 279.727 68.5974 280.248 73.9698C280.428 75.8142 278.888 77.4159 276.889 77.4159Z" fill="white"/>
<path d="M275.515 100.852H373.823C375.027 100.852 375.515 99.6685 375.186 98.5187C374.326 95.5246 372.143 93.9624 370.143 92.7854C364.787 89.6305 357.79 91.8176 357.351 91.9572C353.656 93.1221 352.22 93.7075 350.235 93.2373C345.912 92.212 346.927 88.1501 342.101 81.7523C340.483 79.6046 334.461 72.2938 326.059 71.0227C319.73 70.0671 312.365 70.9681 309.231 79.1344C307.011 84.9194 308.468 88.1167 305.368 89.4485C302.746 90.5739 300.487 87.598 294.356 86.3755C291.783 85.8628 285.076 85.3956 279.668 89.4667C277.738 90.9197 274.585 94.2081 274.018 98.8403C273.887 99.8778 274.463 100.852 275.515 100.852Z" fill="white"/>
<path d="M303 140.147C303 146.317 308.5 152.302 315.286 152.302C322.072 152.302 327.572 147.258 327.572 140.147C327.572 130.361 319.429 119.483 316.408 115.754C315.609 114.768 314.932 114.729 314.164 115.754C311.289 119.595 303 130.361 303 140.147Z" fill="#BBCFFA"/>
<path d="M316.408 115.754C316.31 115.633 316.216 115.53 316.121 115.436C319.432 120.933 322.572 127.849 322.572 134.347C322.572 142.477 316.283 148.247 308.521 148.247C307.71 148.247 306.914 148.168 306.143 148.025C308.393 150.573 311.652 152.299 315.289 152.299C322.076 152.299 327.575 147.255 327.575 140.144C327.572 130.361 319.429 119.483 316.408 115.754Z" fill="#3E4C82"/>
<path d="M199.845 140.301V148.325C199.845 150.239 201.403 151.789 203.326 151.789H211.491C213.414 151.789 214.972 150.239 214.972 148.325V140.301H199.845Z" fill="#5F915C"/>
<path opacity="0.4" d="M199.845 140.301C199.845 140.987 200.403 141.539 201.089 141.539H211.021C212.448 141.539 213.603 142.689 213.603 144.109V148.031C213.603 149.578 212.046 150.834 210.122 150.834H201.957C201.537 150.834 201.137 150.764 200.765 150.655C201.403 151.347 202.308 151.789 203.326 151.789H211.491C213.414 151.789 214.972 150.239 214.972 148.325V140.301H199.845Z" fill="#459440"/>
<path d="M211.85 141.296C213.061 141.296 214.259 140.966 215.265 140.295C216.405 139.537 217.265 138.399 217.454 136.713C218.125 130.749 217.835 127.937 220.344 124.306C222.853 120.674 225.996 113.713 221.661 105.995C219.286 101.766 215.411 99.9493 212.073 99.1515C209.009 98.4204 205.805 98.4204 202.741 99.1515C199.406 99.9493 195.528 101.766 193.153 105.995C188.818 113.713 191.961 120.674 194.47 124.306C196.979 127.937 196.686 130.749 197.36 136.713C197.549 138.399 198.409 139.534 199.549 140.295C200.555 140.966 201.753 141.296 202.964 141.296H211.85Z" fill="#FFD961"/>
<path d="M221.661 105.995C220.454 103.844 218.856 102.322 217.143 101.236C217.68 101.867 218.176 102.573 218.618 103.362C222.954 111.079 219.811 118.041 217.301 121.673C214.792 125.304 215.085 128.116 214.411 134.08C214.222 135.766 213.363 136.901 212.222 137.662C211.216 138.333 210.018 138.663 208.808 138.663H199.924C199.195 138.663 198.476 138.53 197.796 138.287C198.192 139.146 198.811 139.801 199.552 140.295C200.558 140.966 201.756 141.296 202.967 141.296H211.85C213.061 141.296 214.259 140.966 215.265 140.295C216.405 139.537 217.265 138.399 217.454 136.713C218.125 130.749 217.835 127.937 220.344 124.306C222.853 120.674 225.996 113.713 221.661 105.995Z" fill="#F2CA00"/>
<path d="M207.893 121.548C207.521 123.568 207.451 125.125 207.445 125.213L207.427 125.634L207.412 126.01L207.604 125.85L207.985 125.528L207.991 125.349C207.991 125.325 208.037 123.723 207.893 121.548Z" fill="#459440"/>
<path d="M215.067 121.324C211.1 122.928 208.052 125.47 208.021 125.495L207.982 125.528L207.988 125.349C207.988 125.325 208.033 123.723 207.893 121.548C208.03 120.79 208.21 119.968 208.445 119.13C209.607 114.981 211.558 112.563 214.088 112.132C216.89 111.656 218.652 113.203 219.152 114.95C219.756 117.055 218.725 119.843 215.067 121.324Z" fill="#459440"/>
<path d="M207.893 121.548C207.521 123.568 207.451 125.125 207.445 125.213L207.427 125.634L207.601 125.85L207.957 126.287L207.982 125.528L207.988 125.349C207.991 125.325 208.037 123.723 207.893 121.548Z" fill="#459440"/>
<path d="M207.893 121.548C207.521 123.568 207.451 125.125 207.445 125.213L207.427 125.634L207.363 125.558C207.335 125.522 205.128 122.877 198.336 118.684C196.238 117.389 195.391 115.035 196.174 112.687C196.845 110.682 198.839 108.771 201.781 109.026C204.601 109.268 206.497 112.12 207.424 117.504C207.674 118.912 207.814 120.323 207.893 121.548Z" fill="#459440"/>
<path d="M212.488 143.99H202.412C201.732 143.99 201.18 143.441 201.18 142.765C201.18 142.088 201.732 141.539 202.412 141.539H206.204C207.223 141.539 208.052 140.714 208.052 139.701V122.652C208.052 122.458 207.893 122.303 207.701 122.303C207.506 122.303 207.351 122.461 207.351 122.652V139.701C207.351 140.329 206.838 140.838 206.207 140.838H202.415C201.351 140.838 200.482 141.7 200.482 142.762C200.482 143.82 201.348 144.685 202.415 144.685H212.491C213.122 144.685 213.634 145.195 213.634 145.823C213.634 146.45 213.122 146.96 212.491 146.96H203.595C202.521 146.96 201.65 147.828 201.65 148.896C201.65 149.963 202.521 150.831 203.595 150.831H207.701C207.896 150.831 208.052 150.673 208.052 150.482C208.052 150.288 207.893 150.133 207.701 150.133H203.595C202.909 150.133 202.351 149.578 202.351 148.896C202.351 148.213 202.909 147.658 203.595 147.658H212.491C213.509 147.658 214.338 146.833 214.338 145.82C214.335 144.812 213.506 143.99 212.488 143.99Z" fill="#459440"/>
<path d="M246.552 463.13C331.626 463.13 400.593 394.507 400.593 309.855C400.593 225.203 331.626 156.579 246.552 156.579C161.478 156.579 92.5119 225.203 92.5119 309.855C92.5119 394.507 161.478 463.13 246.552 463.13Z" fill="#377532"/>
<path opacity="0.1" d="M296.477 173.279C296.477 170.409 296.392 167.561 296.233 164.73C280.646 159.449 263.933 156.579 246.549 156.579C161.476 156.579 92.5089 225.204 92.5089 309.855C92.5089 312.725 92.5943 315.573 92.7528 318.403C108.341 323.685 125.053 326.554 142.437 326.554C227.513 326.554 296.477 257.93 296.477 173.279Z" fill="white"/>
<path opacity="0.2" d="M338.421 186.814C350.616 208.765 357.564 234.001 357.564 260.854C357.564 345.505 288.596 414.13 203.523 414.13C169.092 414.13 137.303 402.887 111.655 383.891C137.898 431.13 188.466 463.124 246.552 463.124C331.625 463.124 400.593 394.5 400.593 309.849C400.589 259.462 376.148 214.753 338.421 186.814Z" fill="#7BC9CC"/>
<path d="M303.078 162.261C297.636 160.213 290.883 160.089 289.234 162.804C288.164 164.563 289.871 166.462 288.526 168.398C286.789 170.894 282.77 169.42 281.978 171.158C281.017 173.264 285.341 178.873 289.978 179.058C292.682 179.167 293.874 177.365 296.416 178.051C298.48 178.609 300.608 180.581 300.404 182.176C300.026 185.152 291.307 188.753 284.926 186.141C277.332 183.035 276.563 172.572 272.652 173.039C270.497 173.297 268.262 176.767 268.676 179.255C268.939 180.826 270.192 181.612 269.847 182.225C269.164 183.429 264.067 180.714 262.866 182.173C261.838 183.423 263.698 187.691 265.991 187.967C268.872 188.313 271.487 182.228 272.719 182.792C273.539 183.168 272.131 185.753 273.368 187.852C275.231 191.007 281.466 190.339 281.496 191.256C281.524 192.114 276.066 192.384 275.905 193.801C275.783 194.853 278.7 195.597 282.45 197.684C288.725 201.178 288.045 203.271 291.721 204.442C297.502 206.281 300.197 201.439 305.163 203.547C308.614 205.013 307.782 207.552 312.66 210.773C316.724 213.455 320.687 213.931 320.556 214.741C320.403 215.682 315.132 214.714 314.431 216.482C314.123 217.256 316.97 217.841 318.839 219.106C320.742 220.393 321.675 222.343 322.275 221.221C325.873 214.468 328.016 216.446 324.278 213.17C320.708 210.039 318.848 209.363 317.102 207.813C307.041 198.9 318.095 198.994 324.269 210.691C327.382 216.586 340.927 216.033 340.281 210.4C338.903 198.397 349.311 211.016 347.463 212.639C334.022 224.43 348.655 223.238 350.332 225.483C352.652 228.589 354.067 232.396 353.143 233.188C351.86 234.283 347.561 228.274 341.589 228.799C336.586 229.235 335.997 233.761 331.781 233.589C326.839 233.388 325.653 227.094 319.236 226.432C316.355 226.135 315.69 227.312 313.8 226.478C309.788 224.709 311.69 218.927 308.056 216.082C305.492 214.074 299.874 215.278 288.746 217.769C284.164 218.794 279.771 219.944 279.53 219.316C279.185 218.409 288.365 216.064 288.749 211.592C289.103 207.449 281.688 203.875 280.167 203.141C276.262 201.26 269.137 199.161 266.859 201.921C265.289 203.827 267.667 206.056 266.326 210.382C264.966 214.762 261.378 216.176 261.988 217.638C262.902 219.835 271.198 217.135 272.167 219.24C273.042 221.136 267.795 226.539 262.381 229.824C259.277 231.705 256.207 232.836 254.744 236.203C254.012 237.887 254.561 238.112 253.957 239.78C251.89 245.504 244.403 245.808 244.113 249.202C243.915 251.529 247.397 251.756 248.506 255.054C250.433 260.769 241.815 265.532 243.284 271.18C244.092 274.287 246.949 273.825 253.451 278.788C262.552 285.735 261.927 290.437 267.491 291.66C272.664 292.794 273.905 288.887 281.92 289.497C287.273 289.903 287.542 291.711 292.16 291.532C298.328 291.293 299.41 288.01 304.41 288.396C308.047 288.675 312.33 290.786 314.404 294.32C317.339 299.325 313.129 302.565 315.687 309.46C317.516 314.39 320.291 314.396 321.51 319.307C322.287 322.429 321.723 324.944 320.565 329.846C317.772 341.658 314.038 343.846 315.428 349.045C316.55 353.24 319.364 353.253 319.666 357.396C319.995 361.935 316.714 363.2 317.062 367.553C317.379 371.527 320.239 371.963 322.364 376.808C325.495 383.949 321.568 388.208 324.016 390.577C329.33 395.719 354.524 382.056 353.439 372.898C353.18 370.717 351.439 368.854 352.43 366.7C353.588 364.179 356.808 364.92 359.707 362.414C362.786 359.753 361.716 356.714 363.74 351.79C366.85 344.234 374.2 339.65 375.383 340.527C376.444 341.313 372.331 346.333 371.051 355.874C370.761 358.018 369.798 365.205 371.813 365.96C373.755 366.688 378.438 361.461 380.316 355.616C381.785 351.044 380.279 350.016 381.804 345.39C383.874 339.11 388.124 336.541 387.218 335.13C386.05 333.316 379.234 337.936 376.261 335.561C372.865 332.846 375.786 322.031 380.441 313.792C387.23 301.773 395.209 299.662 395.02 291.56C394.925 287.476 392.785 283.138 390.523 282.911C387.032 282.559 384.511 292.109 382.407 291.605C380.627 291.18 379.255 283.587 382.465 277.387C385.712 271.117 390.95 271.484 391.526 267.079C392.166 262.18 385.947 259.75 386.279 252.527C386.368 250.595 386.938 248.052 387.974 247.892C390.053 247.57 391.255 257.271 395.175 258.103C399.501 259.022 406.693 249.057 408.842 241.391C418.619 206.542 343.549 150.366 327.309 161.269C323.26 163.987 322.303 171.258 317.413 171.525C312.797 171.777 311.559 165.452 303.078 162.261Z" fill="#CFF593"/>
<path d="M202.356 167.909C209.804 167.476 218.614 177.659 216.819 182.774C215.087 187.697 204.642 184.749 199.633 192.117C196.197 197.168 198.935 201.755 195.926 203.535C191.588 206.105 180.256 199.904 178.488 191.856C177.302 186.466 181.192 183.814 179.067 179.525C177.064 175.481 171.207 173.006 166.506 174.338C163.976 175.053 160.842 177.141 161.013 179.152C161.186 181.218 164.671 181.257 168.936 185.025C170.765 186.639 174.631 190.054 173.912 193.276C173.159 196.664 167.72 198.114 164.451 198.269C160.894 198.439 155.592 197.28 154.662 194.262C153.626 190.892 158.644 187.175 157.879 186.296C157.156 185.468 152.659 188.707 146.69 191.935C135.907 197.766 132.791 196.813 130.928 200.356C127.675 206.539 132.95 217.474 137.702 217.845C141.096 218.108 144.675 213.024 147.044 209.657C150.553 204.673 150.848 201.509 153.446 200.993C156.001 200.49 156.714 203.347 160.869 204.212C166.043 205.289 168.723 201.645 171.936 203.229C174.259 204.376 173.881 206.784 175.713 210.652C180.128 219.977 189.478 221.118 188.801 225.007C188.374 227.461 184.247 229.296 181.061 229.066C178.046 228.847 177.375 226.885 172.71 224.424C168.765 222.343 163.272 220.599 162.391 221.891C161.424 223.308 165.878 228.58 167.68 230.713C169.744 233.155 170.57 233.646 170.454 234.684C170.162 237.299 164.232 240.135 159.504 238.858C156.616 238.078 155.199 236.04 153.583 236.747C152.312 237.302 152.443 238.882 151.678 240.596C149.117 246.342 140.492 244.658 138.273 249.512C136.681 252.991 140.355 255.521 138.602 258.512C136.352 262.353 129.401 259.717 127.09 263.29C124.361 267.51 131.538 275.063 129.349 277.162C127.928 278.527 123.404 276.774 120.477 274.287C116.895 271.241 117.633 268.726 114.938 266.636C110.914 263.515 102.938 264.212 98.0667 268.699C93.3321 273.064 91.3077 281.215 94.8777 285.386C96.4874 287.267 99.5849 288.747 102.28 288.026C106.377 286.927 106.6 281.525 109.633 281.364C112.167 281.23 115.24 284.828 114.828 287.57C114.328 290.904 108.819 292.103 109.203 293.589C109.533 294.86 113.545 293.926 117.197 296.498C118.377 297.329 120.045 298.285 120.243 299.878C120.517 302.095 117.709 302.917 118.02 304.792C118.468 307.507 124.892 309.081 126.715 309.53C126.95 309.588 127.181 309.639 127.181 309.639C127.181 309.639 130.206 310.316 132.904 310.207C136.879 310.046 138.263 303.087 143.117 301.898C146.345 301.106 147.159 303.839 153.034 305.329C161.003 307.349 163.189 303.257 168.814 305.481C175.061 307.95 173.774 313.556 180.061 315.537C184.993 317.093 187.655 314.226 192.432 316.714C194.606 317.845 194.774 318.813 198.063 321.922C200.725 324.44 204.014 327.553 207.944 329.321C215.709 332.819 219.718 328.25 226.553 332.437C228.519 333.641 228.842 334.42 232.324 336.556C236.778 339.289 238.424 339.347 239.013 341.006C240.037 343.879 236.534 347.729 234.797 349.64C231.007 353.805 228.175 354.023 227.629 356.935C227.193 359.265 228.897 359.702 228.925 362.663C228.971 367.447 224.562 371.154 222.587 372.816C219.779 375.176 217.035 376.305 215.663 376.857C209.584 379.296 206.77 377.976 204.737 380.5C203.06 382.581 204.67 383.858 203.176 387.413C202.286 389.534 201.267 390.134 194.417 395.85C188.789 400.546 188.213 401.195 186.817 401.177C182.134 401.116 178.536 393.684 178.21 393.911C177.887 394.136 183.362 400.163 181.643 403.531C180.454 405.86 176.902 404.79 174.201 408.311C172.863 410.056 173.159 411.069 171.622 412.194C169.372 413.845 167.332 412.701 166.43 414.005C165.305 415.634 168.265 417.721 167.787 421.353C167.384 424.404 165.025 424.969 165.281 427.216C165.644 430.387 170.628 431.791 170.366 432.446C170.098 433.12 164.214 433.199 160.287 429.564C155.845 425.451 159.061 421.353 154.409 412.637C152.053 408.223 149.983 406.94 149.894 403.239C149.818 400.018 151.339 398.898 152.507 395.386C154.22 390.241 153.199 385.9 151.324 377.927C149.397 369.725 148.431 365.623 144.983 363.181C141.135 360.46 138.257 362.25 135.041 359.032C131.944 355.931 133.91 353.568 130.703 349.446C127.282 345.053 123.551 345.814 122.27 341.992C121.828 340.67 122.291 340.63 122.557 334.945C122.855 328.52 122.255 328.733 122.816 327.179C124.55 322.393 129.614 322.15 129.755 318.628C129.831 316.75 128.474 314.693 126.874 314.223C124.493 313.525 123.157 316.808 120.252 316.629C117.981 316.489 116.295 314.159 112.92 309.497C109.676 305.016 109.646 303.691 107.405 302.48C104.832 301.091 103.752 302.235 101.356 300.715C98.3502 298.807 98.9599 296.319 96.4295 294.939C93.8442 293.525 92.2285 295.591 88.4633 295.227C82.4696 294.648 76.607 288.447 76.7839 283.202C76.8479 281.249 77.7046 280.821 78.6039 278.446C81.9971 269.475 75.9241 259.292 75.3723 259.437C74.976 259.544 77.3875 264.971 74.6559 269.566C73.7504 271.089 72.2962 272.494 71.6712 272.2C70.6042 271.699 73.4395 266.952 72.342 260.809C71.6682 257.035 70.2048 256.631 69.3421 253.158C68.339 249.117 69.3847 245.881 71.3969 239.914C73.7657 232.891 75.9028 226.554 81.7715 221.136C86.0976 217.141 87.3048 218.4 90.4267 214.869C95.9753 208.592 92.6918 204.012 97.0118 196.589C100.914 189.881 109.344 183.742 117.91 183.023C123.331 182.568 126.279 184.494 130.203 182.037C134.075 179.613 134.703 175.551 138.114 175.257C140.391 175.06 141.074 176.789 143.638 177.583C148.638 179.131 151.504 174.25 159.549 171.416C169.528 167.9 179.783 170.242 180.728 170.47C185.411 171.595 186.661 172.957 190.417 172.645C196.517 172.129 197.871 168.173 202.356 167.909Z" fill="#CFF593"/>
<path d="M92.5028 149.707V151.838H77.7627C77.1119 151.838 76.5862 151.312 76.5862 150.667V149.707H92.5028Z" fill="#5F915C"/>
<path d="M92.4972 90.6408V149.704H75.2847C74.6895 149.704 74.175 149.259 74.1194 148.667L73.8385 145.974L68.8268 98.8515L68.7851 98.4641L68.4375 95.0824L67.9563 90.6381H92.4972V90.6408Z" fill="#377532"/>
<path d="M108.422 149.704V150.667C108.422 151.309 107.894 151.835 107.24 151.835H92.5V149.704H108.422Z" fill="#5F915C"/>
<path d="M117.052 90.6408L116.379 96.9864L116.279 97.919L116.251 98.1929L110.892 148.667C110.836 149.259 110.33 149.71 109.729 149.71H92.4944V90.6408H117.052Z" fill="#377532"/>
<path d="M94.4802 94.327L92.5028 94.6369L90.5254 94.327C90.2222 110.45 92.5028 111.224 92.5028 111.224C92.5028 111.224 94.7861 110.45 94.4802 94.327Z" fill="#5F915C"/>
<path d="M84.7072 94.327L82.7298 94.6369L80.7524 94.327C80.4493 110.45 82.7298 111.224 82.7298 111.224C82.7298 111.224 85.0131 110.45 84.7072 94.327Z" fill="#5F915C"/>
<path d="M100.301 94.327L102.279 94.6369L104.256 94.327C104.559 110.45 102.279 111.224 102.279 111.224C102.279 111.224 99.9952 110.45 100.301 94.327Z" fill="#5F915C"/>
<path opacity="0.4" d="M117.052 90.6408L116.379 96.9864L116.279 97.919L116.251 98.1929L110.892 148.667C110.836 149.259 110.33 149.71 109.729 149.71H108.422V150.67C108.422 151.312 107.894 151.838 107.237 151.838H103.68L103.983 149.71H104.606V149.704L109.932 104.591C110.319 101.334 107.755 98.4697 104.459 98.4697H68.7851L68.635 96.9891L68.4375 95.0907L67.9591 90.6408H117.052Z" fill="#5F915C"/>
<path d="M120 91.031V95.9348C120 96.5215 119.533 96.9891 118.94 96.9891H66.0596C65.47 96.9891 65 96.5242 65 95.9348V91.031C65 90.5385 65.3476 90.1095 65.8427 89.9988L68.6377 89.4177V89.4121L68.8463 88.8199L69.575 86.7084C69.7224 86.2795 70.1257 86 70.5734 86H114.424C114.883 86 115.278 86.2795 115.428 86.7084L116.162 88.8199L116.371 89.4121V89.4177L119.166 89.9988C119.655 90.1095 120 90.5385 120 91.031Z" fill="#5F915C"/>
<g opacity="0.95">
<path opacity="0.95" d="M83.7728 126.232C83.7728 122.681 85.9421 119.634 89.0375 118.334C89.9052 117.968 90.848 117.741 91.8381 117.681V119.695L94.1214 117.838L96.3324 116.04L94.1214 114.238L91.8409 112.381V114.127C90.873 114.169 89.9358 114.324 89.0403 114.578C84.1927 115.954 80.58 120.24 80.2379 125.418L83.8089 126.965C83.7811 126.724 83.7728 126.481 83.7728 126.232Z" fill="white"/>
<path opacity="0.95" d="M92.3832 134.799C89.908 134.799 87.6775 133.762 86.1089 132.098C85.8141 131.786 85.5416 131.451 85.2968 131.097C85.2329 131.005 85.1717 130.911 85.1105 130.817L86.7736 129.968L84.0703 128.794L84.0008 128.764L83.859 128.703L81.4533 127.66L80.8553 130.441L80.8386 130.513L80.7997 130.695L80.2379 133.31L81.762 132.53L81.7981 132.511L81.812 132.505L81.9316 132.444C81.99 132.541 82.0457 132.635 82.1068 132.729C82.3349 133.086 82.5824 133.432 82.8494 133.764C85.0771 136.557 88.523 138.35 92.386 138.35C94.5052 138.35 96.4965 137.813 98.232 136.864L97.6618 133.003C96.1989 134.13 94.3689 134.799 92.3832 134.799Z" fill="white"/>
<path opacity="0.95" d="M103.266 131.705L103.252 131.697C103.758 130.701 104.131 129.63 104.345 128.498C104.487 127.765 104.559 127.006 104.559 126.232C104.559 121.992 102.37 118.262 99.0579 116.098L96.1016 118.502C98.994 119.883 100.991 122.825 100.991 126.232C100.991 126.32 100.991 126.409 100.985 126.497C100.949 127.701 100.663 128.838 100.179 129.865L98.4656 128.841L98.8938 131.744L98.905 131.819L99.3082 134.556L101.998 133.593L102.067 133.568L104.77 132.599L103.266 131.705Z" fill="white"/>
</g>
<path opacity="0.4" d="M118.198 93.0545H70.4678L70.6096 92.6425L118.062 92.6592L118.198 93.0545Z" fill="#5F915C"/>
<path d="M454.886 133L448.546 152.526C448.216 153.566 448.077 154.656 448.133 155.747L448.599 164.403L449.652 164.577L450.706 164.751L453.939 156.705C454.346 155.694 454.564 154.615 454.588 153.525L454.886 133Z" fill="#F2CA00"/>
<path d="M454.885 133L448.545 152.526C448.215 153.566 448.073 154.656 448.132 155.747L448.598 164.403L449.651 164.577L454.885 133Z" fill="#FFD500"/>
<path d="M479.447 179.069L461.906 168.379C460.971 167.816 459.941 167.427 458.867 167.232L450.33 165.679L449.917 166.664L449.504 167.648L456.587 172.655C457.478 173.286 458.478 173.749 459.534 174.023L479.447 179.069Z" fill="#F2CA00"/>
<path d="M479.447 179.069L461.906 168.379C460.971 167.816 459.941 167.427 458.867 167.232L450.33 165.679L449.917 166.664L479.447 179.069Z" fill="#FFD500"/>
<path d="M419 177.527L437.19 167.981C438.161 167.48 439.214 167.159 440.297 167.032L448.917 166.027L449.268 167.035L449.619 168.043L442.229 172.587C441.3 173.159 440.273 173.557 439.202 173.763L419 177.527Z" fill="#F2CA00"/>
<path d="M419 177.527L437.19 167.981C438.161 167.48 439.214 167.159 440.297 167.032L448.917 166.027L449.268 167.035L419 177.527Z" fill="#FFD500"/>
<path d="M450.687 165.676H449.501H448.315L446.141 235.6C446.123 236.127 446.548 236.563 447.076 236.563H449.504H451.932C452.46 236.563 452.882 236.127 452.867 235.6L450.687 165.676Z" fill="#F2CA00"/>
<path d="M448.315 165.676L446.141 235.6C446.123 236.127 446.548 236.563 447.076 236.563H449.504V165.676H448.315Z" fill="#FFD500"/>
<path d="M449.501 168.827C451.018 168.827 452.247 167.598 452.247 166.083C452.247 164.567 451.018 163.339 449.501 163.339C447.984 163.339 446.754 164.567 446.754 166.083C446.754 167.598 447.984 168.827 449.501 168.827Z" fill="#FFD500"/>
<path d="M450.61 163.575C450.761 163.914 450.846 164.288 450.846 164.683C450.846 166.198 449.616 167.427 448.1 167.427C447.704 167.427 447.33 167.341 446.99 167.191C447.418 168.155 448.38 168.827 449.501 168.827C451.017 168.827 452.247 167.598 452.247 166.083C452.247 164.96 451.575 163.999 450.61 163.575Z" fill="#F2CA00"/>
<path d="M487.35 170.74L482.391 186.012C482.132 186.826 482.023 187.677 482.07 188.529L482.436 195.299L483.259 195.435L484.082 195.57L486.61 189.278C486.929 188.485 487.1 187.642 487.117 186.79L487.35 170.74Z" fill="#F2CA00"/>
<path d="M487.35 170.74L482.391 186.012C482.132 186.826 482.023 187.677 482.07 188.529L482.436 195.299L483.259 195.435L487.35 170.74Z" fill="#FFD500"/>
<path d="M506.561 206.77L492.841 198.408C492.109 197.969 491.304 197.666 490.463 197.512L483.787 196.298L483.462 197.067L483.138 197.837L488.678 201.754C489.374 202.246 490.156 202.608 490.982 202.823L506.561 206.77Z" fill="#F2CA00"/>
<path d="M506.561 206.77L492.841 198.408C492.109 197.969 491.304 197.666 490.463 197.512L483.787 196.298L483.462 197.067L506.561 206.77Z" fill="#FFD500"/>
<path d="M459.283 205.564L473.512 198.099C474.27 197.707 475.093 197.453 475.942 197.356L482.683 196.569L482.958 197.359L483.232 198.149L477.453 201.703C476.724 202.151 475.922 202.464 475.084 202.623L459.283 205.564Z" fill="#F2CA00"/>
<path d="M459.283 205.564L473.512 198.099C474.27 197.707 475.093 197.453 475.942 197.356L482.683 196.569L482.958 197.359L459.283 205.564Z" fill="#FFD500"/>
<path d="M484.067 196.298H483.138H482.208L480.506 251.055C480.494 251.429 480.795 251.739 481.17 251.739H483.135H485.099C485.474 251.739 485.775 251.429 485.763 251.055L484.067 196.298Z" fill="#F2CA00"/>
<path d="M482.211 196.298L480.509 251.09C480.497 251.447 480.784 251.742 481.14 251.742H483.141V196.298H482.211Z" fill="#FFD500"/>
<path d="M483.167 198.747C484.353 198.747 485.315 197.787 485.315 196.602C485.315 195.417 484.353 194.456 483.167 194.456C481.981 194.456 481.02 195.417 481.02 196.602C481.02 197.787 481.981 198.747 483.167 198.747Z" fill="#FFD500"/>
<path d="M484.008 194.651C484.126 194.916 484.194 195.208 484.194 195.517C484.194 196.702 483.232 197.663 482.046 197.663C481.736 197.663 481.444 197.595 481.179 197.477C481.512 198.232 482.264 198.756 483.141 198.756C484.327 198.756 485.288 197.795 485.288 196.611C485.288 195.735 484.76 194.984 484.008 194.651Z" fill="#F2CA00"/>
</svg>
