<svg width="677" height="482" viewBox="0 0 677 482" fill="none" xmlns="http://www.w3.org/2000/svg">
<path d="M677 0H0V482H677V0Z" fill="white"/>
<path d="M630.557 394.704H127.26C111.343 394.704 98.3158 400.09 98.3158 406.67C98.3158 411.225 104.561 415.207 113.69 417.232H69.3713C53.454 417.232 40.4269 422.618 40.4269 429.197C40.4269 435.777 53.454 441.163 69.3713 441.163H84.812C80.4978 443.254 77.8791 445.959 77.8791 448.905V453.695C77.8791 460.274 90.9062 465.661 106.824 465.661H602.627C618.544 465.661 631.571 460.274 631.571 453.695V448.905C631.571 442.326 618.544 436.939 602.627 436.939L568.915 437.204C571.486 437.204 575.655 436.367 578.449 434.68C583.354 431.728 583.572 427.233 581.17 423.516C579.613 421.106 577.127 419.19 570.955 418.473L630.545 418.635C646.463 418.635 659.49 413.249 659.49 406.67C659.502 400.09 646.475 394.704 630.557 394.704Z" fill="#E6ECFA"/>
<path d="M279.561 102.497C279.561 102.497 266.902 118.933 263.903 162.428L275.319 163.597C275.319 163.597 275.5 125.356 285.42 104.714L279.561 102.497Z" fill="#283773"/>
<path d="M342.935 43.5605C342.935 43.5605 303.606 46.7237 287.272 63.0635C270.939 79.4033 280.388 106.124 280.388 106.124C280.388 106.124 307.166 115.511 323.5 99.1773C339.84 82.8375 342.935 43.5605 342.935 43.5605Z" fill="#739E70"/>
<path d="M280.388 106.124C280.388 106.124 281.933 106.66 284.491 107.257L319.711 66.793L279.247 102.033C279.845 104.582 280.388 106.124 280.388 106.124Z" fill="#283773"/>
<path d="M216.881 67.3115C216.881 67.3115 219.844 102.347 234.5 116.849C249.157 131.351 273.014 122.838 273.014 122.838C273.014 122.838 281.317 98.9428 266.655 84.4406C251.992 69.9384 216.881 67.3115 216.881 67.3115Z" fill="#739E70"/>
<path d="M273.008 122.832C273.008 122.832 273.485 121.452 274.004 119.174L237.716 87.9287L269.346 123.868C271.633 123.32 273.008 122.832 273.008 122.832Z" fill="#283773"/>
<path d="M280.388 106.124C280.388 106.124 323.035 102.883 337.933 70.6914C337.933 70.6914 328.81 122.494 280.388 106.124Z" fill="#87AB84"/>
<path d="M331.525 452.17L330.632 456.749L321.02 459.828L317.55 454.495L322.8 450.67L332.412 447.591L331.525 452.17Z" fill="#112033"/>
<path d="M352.167 338.062L332.267 450.772L323.264 451.103L317.918 372.73L315.39 333.803L352.167 338.062Z" fill="#1D2752"/>
<path d="M379.392 336.863L366.6 447.344L358.345 448.073L349.614 363.415L342.688 338.454L379.392 336.863Z" fill="#1D2752"/>
<path d="M358.303 447.025L358.714 451.772L368.042 455.737L372.103 450.591L367.233 446.235L358.303 447.025Z" fill="#112033"/>
<path d="M317.55 340.093L313.478 327.079L317.55 312.306L379.392 314.457V336.864L317.55 340.093Z" fill="#484F5B"/>
<path d="M261.411 224.702L260.198 230.221L250.834 229.281L248.728 223.769L251.823 219.738L255.239 222.648L255.462 221.612L254.635 220.346L255.92 219.539L261.411 224.702Z" fill="#EBCEB1"/>
<path d="M330.312 210.423L295.05 227.184L260.337 222.19L258.111 230.54L298.236 243.416L350.115 226.16L330.312 210.423Z" fill="#283773"/>
<path d="M350.502 177.688C344.25 181.587 335.417 179.357 329.703 184.057C325.992 187.118 324.61 192.582 325.491 197.475C325.901 199.752 326.782 202.005 328.357 203.662C329.377 204.735 330.656 205.518 331.99 206.102C333.77 206.892 335.682 207.319 337.601 207.41C337.468 209.169 337.173 210.916 336.726 212.615C340.316 212.206 343.906 211.802 347.497 211.392C347.267 209.296 347.038 207.199 346.815 205.102C347.69 204.578 348.522 203.976 349.283 203.283C353.893 199.089 355.896 192.04 354.236 185.834C353.47 182.936 351.986 180.285 350.502 177.688Z" fill="#EBCEB1"/>
<path d="M334.089 182.864C334.349 182.767 334.608 182.677 334.868 182.593C338.633 181.37 342.663 181.008 346.598 181.46C349.289 181.767 352.312 182.792 353.241 185.641C353.663 186.931 353.651 188.31 353.633 189.66C353.615 191.353 353.591 193.052 353.573 194.745C353.567 195.052 353.567 195.372 353.717 195.637C354.158 196.45 355.479 196.095 356.034 195.354C358.062 192.655 360.584 188.383 361.236 185.093C361.767 182.412 360.801 179.267 361.924 176.736C362.442 175.568 363.492 174.736 364.301 173.742C366.051 171.597 366.63 168.554 365.803 165.916C365.272 164.223 364.138 162.668 362.533 161.897C359.878 160.626 356.686 161.722 353.814 161.096C352.354 160.776 351.014 160.017 349.542 159.77C346.441 159.246 343.424 161.059 341.058 163.132C338.693 165.205 336.557 167.669 333.667 168.922C331.35 169.922 328.749 170.055 326.36 170.88C322.384 172.26 319.204 175.622 317.822 179.598C316.277 184.051 316.639 189.648 319.952 193.137C321.611 194.884 322.963 196.848 324.339 198.818C324.815 199.499 327.567 202.023 327.362 199.378C327.199 197.324 326.378 195.36 326.233 193.299C325.883 188.274 329.66 184.497 334.089 182.864Z" fill="#1D2752"/>
<path d="M360.608 212.839L330.698 210.351C330.698 210.351 320.839 223.178 309.984 260.087C299.129 296.996 307.178 329.664 307.178 329.664C307.178 329.664 340.92 323.597 388.557 329.055L374.679 237.481L360.608 212.839Z" fill="#283773"/>
<path d="M257.743 162.157L260.337 157.855L259.251 153.547L260.036 152.854L260.917 153.794L261.025 149.956L263.046 147.612L267.107 148.022L270.16 150.974L269.334 155.029L266.106 158.704L262.805 164.747L257.743 162.157Z" fill="#D19974"/>
<path d="M255.884 159.379L231.604 202.94L212.573 208.079L223.036 237.722L245.94 220.737L251.811 214.381L267.077 162.819L255.884 159.379Z" fill="#B7BCC7"/>
<path d="M208.349 443.343V447.567L219.192 452.983L224.617 447.567L219.192 442.15H218.492L218.323 443.343H208.349Z" fill="#112033"/>
<path d="M181.644 442.15H180.895L175.477 447.567L180.895 452.983L191.738 447.567V443.343H181.77L181.644 442.15Z" fill="#112033"/>
<path d="M242.839 317.433C242.157 310.324 241.457 303.214 240.594 296.123C238.875 281.982 236.54 267.871 232.581 254.183C231.067 248.953 229.323 243.795 227.585 238.638C225.461 232.36 223.338 226.082 221.22 219.804C218.583 212.002 214.13 206.507 206.334 203.777C204.94 203.289 203.474 202.916 201.966 202.639C201.929 202.801 201.893 202.964 201.875 203.133C201.785 203.88 201.573 204.711 201.109 205.254L206.225 205.302C206.225 205.302 220.665 256.538 221.196 265.371C221.395 268.727 222.07 276.053 222.813 283.777L230.651 284.952L230.988 314.481C231.429 314.607 231.863 314.734 232.298 314.848C234.784 315.517 236.811 317.361 238.875 318.801C241.916 320.946 243.255 321.795 242.839 317.433Z" fill="#B7BCC7"/>
<path d="M222.801 283.789C223.983 296.008 225.353 309.203 225.353 309.203C225.353 309.203 219.011 309.353 209.846 310.046C210.522 310.028 211.203 310.01 211.879 310.004C218.257 309.944 224.87 312.697 230.976 314.48L230.639 284.952L222.801 283.789Z" fill="#667482"/>
<path d="M193.717 205.169C194.007 205.205 193.579 202.518 193.476 202.283C187.708 202.084 180.268 205.338 176.629 209.863C173.938 213.212 172.333 217.309 170.777 221.334C166.384 232.667 164.393 243.163 162.202 255.074C160.803 262.672 159.511 270.233 158.498 277.776C157.369 286.127 156.579 294.46 156.35 302.738C156.325 303.654 156.144 306.214 156.042 309.269C155.831 315.674 155.963 324.241 158.618 324.56C159.113 324.621 159.596 324.398 160.03 324.181C163.445 322.494 166.136 320.295 169.153 318.373C170.215 317.698 171.314 317.053 172.496 316.481C174.868 315.336 177.402 314.456 180.002 313.764C175.628 313.993 175.085 313.173 175.085 313.173C175.085 313.173 179.031 297.086 181.8 283.09C183.23 275.878 184.341 269.221 184.443 265.612C184.751 254.755 186.121 218.894 186.121 218.894L192.758 205.181L193.983 205.193C193.892 205.193 193.802 205.181 193.717 205.169Z" fill="#B7BCC7"/>
<path d="M230.976 314.492C224.87 312.709 218.257 309.955 211.879 310.016C211.203 310.022 210.522 310.04 209.846 310.058C209.279 310.1 208.699 310.148 208.114 310.19C203.842 310.534 199.039 310.992 194.025 311.6C193.778 311.63 193.536 311.66 193.289 311.691C186.875 313.082 182.712 313.631 180.008 313.769C177.408 314.462 174.874 315.336 172.502 316.486C171.32 317.059 170.221 317.704 169.159 318.378L169.123 325.337L181.348 443.512H191.37V444.717H191.431L202.454 365.452L202.503 365.006L208.543 444.717H208.603V443.512H218.673L231.447 354.751L230.976 314.492Z" fill="#1D2752"/>
<path d="M222.801 283.79C222.052 276.072 221.383 268.739 221.183 265.383C220.652 256.551 206.213 205.314 206.213 205.314L201.097 205.266C201.042 205.332 200.982 205.392 200.916 205.453C200.759 205.591 200.578 205.7 200.367 205.772C199.95 205.911 199.498 205.862 199.057 205.808C197.368 205.603 195.672 205.404 193.983 205.2L192.758 205.188L186.121 218.9C186.121 218.9 184.751 254.755 184.443 265.612C184.341 269.221 183.224 275.879 181.8 283.091C179.031 297.087 175.085 313.174 175.085 313.174C175.085 313.174 175.628 313.993 180.002 313.764C182.705 313.619 186.869 313.077 193.283 311.685C193.53 311.655 193.778 311.625 194.019 311.595C199.033 310.987 203.836 310.529 208.108 310.185C208.699 310.137 209.273 310.095 209.84 310.053C219.011 309.36 225.347 309.203 225.347 309.203C225.347 309.203 223.977 296.008 222.801 283.79Z" fill="white"/>
<path d="M205.821 275.107L209.828 278.09L214.142 277.337L214.763 278.186L213.768 279.006L217.527 279.427L219.663 281.663L218.927 285.742L215.777 288.591L211.867 287.422L208.524 283.856L202.865 280.018L205.821 275.107Z" fill="#D19974"/>
<path d="M209.351 274.945L188.124 257.84L186.386 213.688L169.479 230.824L166.396 259.243L170.547 269.962L206.467 284.886L209.351 274.945Z" fill="#B7BCC7"/>
<path d="M210.371 172.526C211.656 175.111 212.187 178.039 212.169 180.937C212.163 181.709 212.169 182.6 212.76 183.082C213.388 183.6 212.76 184.637 213.291 184.016C213.822 183.396 215.626 181.227 215.747 180.407C216.024 178.497 216.121 176.557 216.03 174.629C215.958 172.948 215.711 171.189 214.697 169.857C214.1 169.068 213.273 168.496 212.458 167.935C211.282 167.128 210.063 166.309 208.681 165.971C206.298 165.393 204.777 166.188 206.817 168.008C208.271 169.309 209.49 170.755 210.371 172.526Z" fill="#1D2752"/>
<path d="M193.747 204.543C197.042 205.031 200.336 205.519 203.637 206.007C204.289 203.127 204.735 200.193 204.964 197.24C207.873 196.891 211.312 196.12 212.458 193.101C212.82 192.149 212.881 191.101 212.941 190.071C213.188 185.823 213.436 181.575 213.677 177.322C213.762 175.852 213.84 174.339 213.418 172.947C212.67 170.507 210.534 168.965 208.41 167.953C202.997 165.374 196.541 165.127 191.273 168.115C189.874 168.911 188.534 169.959 187.671 171.435C186.344 173.707 186.35 176.599 186.404 179.304C186.452 181.798 186.501 184.299 186.543 186.793C186.597 189.661 186.851 192.981 188.963 194.601C190.085 195.463 191.575 195.692 192.523 196.782C194.2 198.704 193.228 201.922 193.747 204.543Z" fill="#D19974"/>
<path d="M214.039 188.426C214.033 187.637 213.81 185.311 212.567 186.697C212.241 187.059 212.139 187.595 212.096 188.095C212.054 188.601 212.048 189.119 211.867 189.589C211.451 190.662 210.238 191.095 209.176 191.023C208.754 190.993 208.331 190.903 207.969 190.668C207.619 190.439 207.348 190.089 207.082 189.752C206.443 188.92 205.803 188.095 205.163 187.263C204.065 185.842 201.712 186.305 200.125 186.432C198.297 186.577 196.451 187.041 194.906 188.173C194.749 188.288 194.598 188.408 194.441 188.529C194.067 188.824 193.693 189.113 193.265 189.3C191.829 189.92 190.127 189.107 189.21 187.758C188.788 187.137 188.407 186.354 187.714 186.215C187.171 186.107 186.615 186.48 186.308 186.986C186 187.492 185.891 188.107 185.825 188.709C185.578 190.897 185.759 193.18 186.597 195.174C188.413 199.506 192.317 200.229 196.27 200.338C197.832 200.38 199.395 200.428 200.958 200.47C203.812 200.549 206.835 200.591 209.327 199.03C211.523 197.657 212.911 195.192 213.563 192.578C213.901 191.228 214.051 189.824 214.039 188.426ZM203.299 193.867C201.742 194.813 200.083 194.783 198.436 194.186C197.736 193.933 198.098 192.734 198.798 192.987C200.161 193.481 201.477 193.542 202.768 192.752C203.42 192.355 203.945 193.475 203.299 193.867Z" fill="#1D2752"/>
<path d="M215.807 165.429C216.133 164.41 216.393 163.374 216.574 162.32C215.59 162.615 214.534 162.651 213.532 162.422C213.563 161.814 213.587 161.199 213.617 160.591C213.641 160.084 206.883 159.373 206.334 159.295C201.205 158.596 196.517 157.94 191.714 160.506C187.611 162.693 184.878 166.146 184.033 170.773C183.224 175.195 184.365 181.088 186.712 184.913C186.76 183.726 186.229 180.895 186.561 179.78C186.784 178.659 187.225 177.593 187.81 176.611C188.969 174.659 190.694 173.056 192.649 171.948C195.769 170.182 199.329 169.351 202.859 169.038C206.093 168.748 210.033 168.537 213.158 169.568C214.661 170.062 214.896 170.465 215.898 168.947C216.073 168.682 217.527 165.531 217.4 165.519C216.875 165.501 216.338 165.465 215.807 165.429Z" fill="#1D2752"/>
<path d="M157.991 154.269C157.249 151.763 156.512 149.262 155.794 146.75C154.702 147.057 153.61 147.371 152.518 147.678C152.627 149.515 152.735 151.353 152.844 153.191C152.277 153.1 151.715 153.004 151.148 152.914C152.078 154.986 153.055 157.029 154.02 159.083C155.185 158.933 156.343 158.752 157.514 158.643C157.659 157.191 157.767 155.721 157.991 154.269Z" fill="#B77D63"/>
<path d="M127.465 220.689C127.266 220.304 127.091 219.906 126.953 219.514C125.317 215.05 124.666 210.037 126.271 205.56C126.5 204.916 126.808 204.247 127.381 203.873C127.846 203.566 128.419 203.5 128.974 203.434C133.759 202.885 138.55 202.337 143.335 201.789C143.781 201.735 144.258 201.674 144.602 201.391C144.915 201.138 145.072 200.746 145.211 200.367C146.695 196.348 154.835 157.583 152.301 157.324C154.648 157.138 156.989 156.921 159.33 156.752C161.683 169.182 164.326 204.47 160.935 208.7C153.248 218.285 150.129 218.924 138.743 224.395C137.343 225.069 135.846 225.678 134.29 225.654C131.315 225.612 128.799 223.286 127.465 220.689Z" fill="#D1E7F5"/>
<path d="M70.7471 155.535C71.4892 153.028 72.2254 150.528 72.9434 148.016C74.0355 148.323 75.1277 148.636 76.2198 148.943C76.1112 150.781 76.0026 152.619 75.894 154.456C76.4611 154.366 77.0223 154.27 77.5895 154.179C76.6603 156.252 75.6828 158.294 74.7174 160.349C73.5528 160.198 72.3943 160.017 71.2237 159.909C71.0789 158.457 70.9703 156.987 70.7471 155.535Z" fill="#B77D63"/>
<path d="M101.272 221.955C101.472 221.569 101.647 221.172 101.785 220.78C103.42 216.315 104.072 211.303 102.467 206.826C102.238 206.181 101.93 205.513 101.357 205.139C100.892 204.832 100.319 204.766 99.7639 204.699C94.9791 204.151 90.1882 203.603 85.4033 203.054C84.9568 203.006 84.4802 202.94 84.1362 202.657C83.8225 202.404 83.6656 202.012 83.5268 201.633C82.0425 197.614 73.9028 158.849 76.437 158.59C74.0898 158.403 71.7487 158.186 69.4075 158.018C67.0543 170.447 64.4115 205.736 67.8025 209.965C75.4897 219.551 78.6092 220.19 89.9951 225.66C91.395 226.335 92.8914 226.944 94.4481 226.919C97.4228 226.877 99.9389 224.552 101.272 221.955Z" fill="#D1E7F5"/>
<path d="M100.47 430.665L100.446 440.715L106.287 440.727L106.311 429.587L100.47 430.665Z" fill="#B77D63"/>
<path d="M128.208 427.436L126.693 438.245L132.98 439.125L134.658 427.135L128.208 427.436Z" fill="#B77D63"/>
<path d="M133.065 439.125L127.321 438.251L125.052 439.107L123.393 443.053L136.148 450.958C138.103 449.867 138.507 447.228 136.963 445.601L136.456 445.065L133.065 439.125Z" fill="#112033"/>
<path d="M106.287 440.727L100.446 440.715L98.4003 443.402L98.8106 447.662L113.793 448.59L114.221 447.619C115.066 445.71 113.841 443.523 111.765 443.251L111.433 443.209L106.287 440.727Z" fill="#112033"/>
<path d="M82.6641 334.001L93.0725 381.484L99.4141 435.239L109.068 435.263L116.719 300.61L84.3777 301.135L82.6641 334.001Z" fill="#283773"/>
<path d="M144.596 331.241L145.845 377.314L137.397 431.714L125.04 431.648L122.512 373.947L113.63 332.109L110.679 304.731L137.614 301.574L144.596 331.241Z" fill="#283773"/>
<path d="M125.221 200.119L94.9731 203.553L89.9408 220.243L82.8028 269.358L79.3152 311.106L127.942 311.847L143.95 309.292L139.829 265.466L133.753 215.712L125.221 200.119Z" fill="#D1E7F5"/>
<path d="M121.782 167.813C119.368 165.379 115.947 163.981 112.52 164.011C100.621 164.138 99.7157 175.694 101.93 184.689C102.908 188.653 104.863 192.54 108.175 194.932C109.074 195.582 110.088 196.088 111.15 196.438V196.444C110.969 197.058 111.005 204.505 110.474 204.439C113.238 204.807 116.098 204.451 118.68 203.403C118.596 201.179 118.885 198.444 118.668 196.04C119 195.865 119.326 195.679 119.633 195.456C122.819 193.142 123.851 188.925 124.449 185.038C125.221 179.99 125.685 171.741 121.782 167.813Z" fill="#B77D63"/>
<path d="M122.602 178.881C122.982 179.333 123.634 179.442 124.099 179.809C125.649 181.026 124.147 183.701 125.082 185.431C126.283 187.648 126.066 191.546 123.761 193.384C122.976 194.01 121.92 194.45 121.595 195.396C121.214 196.498 121.987 197.926 121.196 198.788C122.451 200.077 124.599 199.806 126.265 199.113C127.924 198.42 129.553 197.39 131.351 197.456C131.924 197.475 132.606 197.565 132.962 197.119C133.173 196.848 133.18 196.48 133.216 196.137C133.632 192.01 138.501 193.07 139.153 189.726C139.328 188.829 138.23 186.605 138.248 185.431C138.278 183.557 139.352 181.882 138.713 179.96C138.447 179.165 137.922 178.484 137.645 177.688C137.089 176.08 137.669 174.332 138.001 172.664C138.332 170.995 138.278 168.976 136.908 167.958C135.84 167.163 134.29 167.265 133.24 166.452C130.905 164.644 132.618 159.933 129.994 158.589C128.648 157.902 127.007 158.655 125.51 158.433C123.93 158.204 122.735 156.944 121.413 156.047C120.092 155.149 118.107 154.667 117.027 155.848C116.116 156.842 116.363 158.493 115.53 159.547C114.818 160.451 113.551 160.644 112.508 161.138C107.614 163.445 116.834 164.952 118.155 166.572C119.271 167.934 120.46 170.501 121.269 172.073C122.198 173.911 121.601 177.7 122.602 178.881Z" fill="#1A3151"/>
<path d="M108.326 167.277C102.34 168.548 105.967 173.013 104.054 176.658C103.3 178.092 101.242 178.634 100.832 180.201C100.5 181.466 101.423 182.665 102.165 183.743C102.902 184.822 103.475 186.376 102.582 187.334C102.316 187.623 101.936 187.816 101.749 188.16C101.26 189.063 102.371 189.979 103.318 190.389C104.259 190.799 105.418 191.6 105.044 192.552C103.945 195.347 103.239 194.167 105.025 196.54C105.454 197.113 106.202 197.01 106.618 197.595C105.84 198.432 104.682 198.733 103.553 198.294C100.766 197.215 101.538 198.571 99.3597 198.908C97.0668 199.27 96.9944 198.565 94.9851 197.287C93.1146 196.095 89.1926 195.263 88.5289 192.841C88.1608 191.491 89.2107 190.1 88.897 188.738C88.6073 187.461 87.1954 186.497 86.5438 185.292C85.2223 182.858 87.2196 180.201 87.6359 177.598C88.2091 173.989 86.0731 169.5 89.8865 167.229C90.7071 166.741 91.7087 166.445 92.5414 165.976C95.0032 164.578 95.498 162.041 96.4634 159.854C97.4288 157.667 99.9208 155.323 102.95 155.829C105.701 156.287 107.155 158.896 109.949 159.167C110.927 159.264 112.001 159.053 112.863 159.408C113.533 159.685 113.907 160.234 114.191 160.764C114.855 161.993 116.792 166.126 115.331 167.265C113.419 168.741 110.866 166.735 108.326 167.277Z" fill="#1A3151"/>
<path d="M131.043 181.37C131.333 180.93 131.623 180.454 131.683 179.917C131.78 179.086 131.357 178.453 130.657 178.044C130.247 177.803 129.794 177.67 129.36 177.483C128.437 177.098 127.695 176.664 128.117 175.326C128.183 175.116 128.37 174.905 128.461 174.694C128.799 173.923 128.877 172.989 128.612 172.187C128.407 171.561 127.978 171.019 127.339 170.808C126.814 170.639 126.313 170.82 125.788 170.784C123.821 170.651 124.557 168.838 124.69 167.729C124.925 165.759 123.574 164.084 121.613 163.831C121.305 163.789 121.311 164.271 121.613 164.307C122.596 164.433 123.441 165.006 123.918 165.879C124.4 166.759 124.207 167.62 124.044 168.56C123.911 169.35 123.869 170.314 124.539 170.898C125.583 171.808 127.109 170.561 127.972 171.904C128.799 173.2 127.882 174.29 127.508 175.477C126.554 178.496 132.721 177.538 130.838 180.803C130.356 181.647 129.426 182.472 129.583 183.545C129.698 184.322 130.289 184.924 131.086 184.84C131.387 184.81 131.393 184.328 131.086 184.364C129.776 184.503 130.066 182.882 130.398 182.291C130.591 181.972 130.838 181.683 131.043 181.37Z" fill="#9EA6AD"/>
<path d="M104 165.999C102.328 165.789 99.7277 165.837 99.4924 168.036C99.3717 169.169 100.047 170.193 100.229 171.283C100.591 173.464 98.3942 173.922 96.8616 174.579C95.2204 175.278 93.7904 177.17 95.5342 178.598C95.7453 178.742 95.9505 178.893 96.1556 179.056C96.0289 179.544 95.9083 180.026 95.7815 180.514C95.6307 180.706 95.2023 180.857 95.0152 181.02C94.7558 181.249 94.5144 181.508 94.4662 181.863C94.3817 182.478 94.7679 182.954 95.3592 182.984C95.6669 182.996 95.6669 182.52 95.3592 182.508C95.4074 182.092 95.4497 181.67 95.498 181.255C95.6247 181.17 95.7574 181.092 95.8902 181.008C96.0169 180.905 96.1737 180.833 96.2944 180.731C96.4875 180.568 96.6806 180.381 96.7892 180.152C97.0607 179.61 96.8978 179.128 96.4875 178.718C96.0832 178.315 95.6609 178.182 95.3954 177.616C94.9368 176.658 95.5885 175.808 96.4513 175.302C97.3504 174.772 98.4244 174.621 99.3174 174.073C100.747 173.199 100.947 171.886 100.476 170.368C100.12 169.223 99.4562 167.698 100.717 166.855C101.646 166.234 102.938 166.349 104 166.481C104.307 166.518 104.307 166.036 104 165.999Z" fill="#9EA6AD"/>
<path d="M92.8251 174.61C93.1207 174.526 92.994 174.062 92.6984 174.146C91.389 174.532 89.6995 175.188 89.7417 176.827C89.7538 177.291 89.9409 177.707 90.2969 178.008C90.8339 178.466 91.4916 178.436 91.9501 179.026C92.8432 180.171 91.7028 181.569 90.3451 181.159C90.0495 181.069 89.9228 181.533 90.2184 181.623C91.5398 182.021 93.0121 181.105 92.8009 179.617C92.6863 178.809 92.2036 178.424 91.5398 178.05C90.5986 177.52 89.7719 176.719 90.6589 175.676C91.1899 175.056 92.0829 174.827 92.8251 174.61Z" fill="#9EA6AD"/>
<path d="M533.883 156.794L535.162 148.521L538.704 148.967L539.072 154.848L540.834 154.281L538.879 161.21L535.144 161.24L533.883 156.794Z" fill="#EBCEB1"/>
<path d="M575.335 224.816C575.498 224.172 575.571 223.455 575.54 222.678C575.408 219.454 573.742 216.43 571.546 214.056C568.07 210.296 563.382 207.603 559.502 204.265C555.068 200.445 550.627 196.619 546.192 192.8L540.327 159.096L532.923 159.542L532.223 201.566C538.36 206.356 544.375 211.007 550.168 216.146C555.363 220.75 560.009 226.775 566.912 228.769C570.81 229.895 574.442 228.365 575.335 224.816Z" fill="#1D2752"/>
<path d="M596.575 308.685L599.447 328.428L593.678 439.795L584.006 437.77L567.956 311.167L596.575 308.685Z" fill="#1D2752"/>
<path d="M549.052 304.979L547.188 378.804L565.965 442.536L576.91 438.469L567.691 381.635L576.156 304.347L549.052 304.979Z" fill="#1D2752"/>
<path d="M576.947 432.505L563.841 438.5L568.24 447.652L561.367 451.978C561.367 451.978 560.721 455.785 563.026 457.394C565.337 459.003 580.283 446.465 580.283 446.465L576.947 432.505Z" fill="#112033"/>
<path d="M596.575 434.667L582.359 437.065L584.229 447.042L576.47 449.434C576.47 449.434 574.853 452.947 576.663 455.098C578.473 457.249 596.17 449.013 596.17 449.013L596.575 434.667Z" fill="#112033"/>
<path d="M599.423 195.053C596.888 197.379 594.04 199.367 590.981 200.946C593.992 195.716 596.279 190.071 597.751 184.22C597.866 183.774 598.005 183.28 598.409 183.051C598.783 182.841 599.254 182.943 599.664 183.064C607.031 185.275 603.839 190.998 599.423 195.053Z" fill="#1D2752"/>
<path d="M591.102 201.151C589.177 202.904 586.643 204.675 583.65 204.681C580.126 204.693 577.785 202.271 576.518 199.946C572.342 192.276 573.736 164.211 593.672 168.754C611.774 172.881 599.097 193.884 591.102 201.151Z" fill="#EBCEB1"/>
<path d="M577.743 193.48C575.866 194.378 573.779 192.709 572.602 190.992C567.775 183.949 568.306 173.7 573.839 167.199C578.467 161.759 588.743 161.427 586.112 169.88C585.177 172.881 581.472 175.7 580.199 178.894C578.37 183.455 578.105 188.636 577.743 193.48Z" fill="#1D2752"/>
<path d="M613.56 169.959C618.749 178.671 616.722 189.998 620.668 199.337C612.679 198.547 605.076 194.36 600.147 188.034C595.307 181.828 581.23 171.567 588.296 163.97C595.495 156.246 609.016 162.331 613.56 169.959Z" fill="#1D2752"/>
<path d="M586.341 200.596C585.43 204.048 584.875 207.591 584.688 211.152C582.045 210.17 579.402 209.188 576.766 208.206C576.349 208.049 575.891 207.85 575.74 207.434C575.619 207.103 575.74 206.729 575.866 206.398C576.838 203.747 577.809 201.096 578.781 198.445C578.883 198.168 578.998 197.867 579.239 197.698C579.71 197.367 580.35 197.662 580.844 197.957C583.173 199.361 585.503 200.765 587.832 202.163L586.341 200.596Z" fill="#EBCEB1"/>
<path d="M603.87 219.52C608.956 228.335 608.932 238.318 608.232 247.868C606.639 269.486 608.703 294.556 601.239 315.221C587.15 315.209 560.136 308.757 546.101 307.317C543.368 288.519 544.961 277.535 546.499 256.249C547.26 245.753 548.889 231.673 552.612 221.677C555.659 213.495 563.774 202.921 576.029 203.259C587.512 203.578 599.242 211.501 603.87 219.52Z" fill="#1D2752"/>
<path d="M615.72 155.739L612.414 146.75L608.546 148.051L609.457 154.727L607.357 154.486L611.116 161.813L615.31 161.011L615.72 155.739Z" fill="#EBCEB1"/>
<path d="M584.615 241.349C584.284 240.662 584.042 239.879 583.903 238.999C583.324 235.354 584.513 231.588 586.438 228.431C589.485 223.431 594.131 219.358 597.727 214.737C601.836 209.453 605.951 204.163 610.06 198.879L609.016 159.77L617.422 158.602L627.703 205.56C621.905 212.314 616.215 218.888 610.881 225.955C606.102 232.287 602.252 240.09 594.964 243.885C590.836 246.03 586.426 245.133 584.615 241.349Z" fill="#1D2752"/>
<path d="M314.238 408.001C368.436 408.001 412.373 364.129 412.373 310.01C412.373 255.891 368.436 212.02 314.238 212.02C260.039 212.02 216.103 255.891 216.103 310.01C216.103 364.129 260.039 408.001 314.238 408.001Z" fill="#5F915C"/>
<path d="M337.637 214.839C339.387 215.267 341.119 215.737 342.832 216.261L337.637 214.839Z" fill="#CFF593"/>
<path d="M340.479 223.238C340.902 223.365 341.318 223.497 341.734 223.636C341.861 223.546 341.982 223.455 342.108 223.365C341.523 223.365 340.992 223.317 340.479 223.238Z" fill="#78C200"/>
<path d="M335.67 228.04C338.687 228.04 343.206 233.041 345.523 231.492C348.715 229.359 347.925 227.359 348.788 226.233C346.483 225.275 344.13 224.407 341.734 223.636C339.713 225.106 337.692 226.57 335.67 228.04Z" fill="#78C200"/>
<path d="M340.479 223.238C339.526 222.948 338.566 222.671 337.601 222.406C338.452 222.786 339.393 223.087 340.479 223.238Z" fill="#78C200"/>
<path opacity="0.07" d="M392.775 264.895C388.31 257.153 382.734 250.133 376.266 244.048C376.182 243.964 376.091 243.886 376.001 243.807C375.349 243.199 374.691 242.596 374.021 242.006C373.925 241.921 373.828 241.837 373.732 241.759C373.062 241.174 372.386 240.596 371.698 240.03C371.62 239.963 371.535 239.903 371.457 239.837C370.745 239.252 370.027 238.68 369.297 238.12C369.243 238.077 369.188 238.041 369.134 237.999C368.374 237.415 367.601 236.842 366.817 236.282C366.793 236.264 366.763 236.246 366.739 236.228C365.93 235.649 365.103 235.083 364.277 234.529C364.277 234.529 364.271 234.529 364.271 234.523C362.569 233.39 360.831 232.318 359.057 231.299C349.464 225.799 338.772 221.997 327.392 220.292C326.728 220.195 326.07 220.099 325.401 220.015C325.026 219.966 324.652 219.924 324.278 219.882C323.844 219.834 323.415 219.78 322.981 219.731C321.159 219.551 319.312 219.424 317.46 219.352C317.062 219.334 316.657 219.322 316.253 219.316C315.433 219.292 314.606 219.273 313.779 219.273C313.061 219.273 312.349 219.285 311.637 219.298C311.372 219.304 311.106 219.316 310.841 219.322C310.406 219.334 309.978 219.352 309.55 219.37C309.206 219.388 308.868 219.406 308.524 219.424C308.192 219.442 307.866 219.466 307.534 219.484C307.13 219.514 306.726 219.539 306.321 219.575C306.134 219.593 305.953 219.605 305.766 219.623C303.413 219.828 301.084 220.123 298.785 220.503C298.176 220.605 297.566 220.707 296.957 220.822H296.951C296.166 220.966 295.388 221.123 294.61 221.292C294.58 221.298 294.549 221.304 294.519 221.31C293.765 221.473 293.017 221.641 292.269 221.822C292.226 221.834 292.184 221.84 292.142 221.852C291.406 222.033 290.67 222.22 289.939 222.418C289.897 222.431 289.855 222.443 289.813 222.455C289.077 222.653 288.341 222.864 287.616 223.081C287.586 223.087 287.556 223.099 287.526 223.105C286.772 223.328 286.03 223.563 285.281 223.81C285.281 223.81 285.275 223.81 285.269 223.81C276.943 226.546 269.147 230.45 262.069 235.324C238.265 251.736 222.662 279.162 222.662 310.233C222.662 331.109 229.709 350.341 241.548 365.693C233.849 352.342 229.444 336.863 229.444 320.349C229.444 292.887 241.632 268.263 260.905 251.579C261.049 251.453 261.194 251.338 261.339 251.212C261.725 250.881 262.111 250.555 262.497 250.23C262.721 250.049 262.944 249.868 263.167 249.688C263.487 249.429 263.801 249.169 264.127 248.916C264.368 248.724 264.615 248.537 264.857 248.35C265.164 248.115 265.472 247.874 265.786 247.639C266.039 247.446 266.293 247.26 266.552 247.073C266.86 246.844 267.168 246.621 267.475 246.398C267.735 246.211 268 246.024 268.26 245.844C268.568 245.627 268.881 245.41 269.195 245.199C269.461 245.018 269.726 244.838 269.992 244.663C270.311 244.452 270.631 244.241 270.951 244.03C271.216 243.855 271.482 243.687 271.753 243.512C272.085 243.301 272.411 243.096 272.749 242.891C273.014 242.729 273.274 242.566 273.539 242.403C273.889 242.193 274.245 241.988 274.595 241.777C274.849 241.632 275.096 241.482 275.35 241.337C275.76 241.102 276.17 240.873 276.587 240.644C276.786 240.536 276.985 240.421 277.19 240.313C277.799 239.981 278.415 239.662 279.03 239.343C279.217 239.246 279.404 239.156 279.591 239.06C280.032 238.837 280.472 238.614 280.919 238.403C281.172 238.282 281.426 238.162 281.679 238.047C282.065 237.867 282.445 237.686 282.832 237.511C283.109 237.385 283.387 237.264 283.658 237.144C284.026 236.981 284.4 236.818 284.768 236.656C285.058 236.535 285.342 236.415 285.631 236.294C285.999 236.143 286.367 235.993 286.735 235.842C287.031 235.728 287.321 235.607 287.616 235.499C287.985 235.354 288.359 235.216 288.733 235.077C289.028 234.969 289.318 234.86 289.614 234.752C289.994 234.613 290.374 234.481 290.754 234.348C291.044 234.246 291.339 234.143 291.635 234.047C292.027 233.914 292.425 233.788 292.824 233.661C293.107 233.571 293.391 233.48 293.674 233.39C294.103 233.257 294.537 233.131 294.966 233.004C295.219 232.932 295.473 232.854 295.732 232.781C296.287 232.625 296.842 232.48 297.397 232.33C297.536 232.293 297.669 232.257 297.808 232.221C298.502 232.04 299.195 231.872 299.895 231.709C300.113 231.661 300.324 231.613 300.541 231.564C301.03 231.456 301.518 231.348 302.013 231.245C302.285 231.191 302.562 231.137 302.834 231.082C303.268 230.998 303.709 230.908 304.149 230.829C304.445 230.775 304.747 230.727 305.042 230.673C305.459 230.6 305.881 230.528 306.303 230.462C306.611 230.414 306.925 230.365 307.233 230.323C307.649 230.263 308.065 230.203 308.482 230.149C308.795 230.106 309.109 230.07 309.423 230.028C309.845 229.98 310.262 229.932 310.684 229.883C310.998 229.847 311.311 229.817 311.619 229.787C312.048 229.745 312.482 229.709 312.91 229.673C313.218 229.648 313.526 229.618 313.834 229.6C314.28 229.57 314.733 229.54 315.185 229.516C315.475 229.498 315.77 229.48 316.06 229.468C316.555 229.444 317.056 229.426 317.556 229.414C317.804 229.407 318.051 229.395 318.299 229.389C319.047 229.371 319.795 229.359 320.549 229.359C320.742 229.359 320.929 229.365 321.123 229.365C334.681 229.45 347.533 232.486 359.07 237.867C359.184 237.921 359.299 237.981 359.413 238.035C359.999 238.312 360.578 238.59 361.157 238.879C361.405 239.005 361.652 239.132 361.905 239.258C362.358 239.487 362.81 239.728 363.263 239.963C363.516 240.096 363.764 240.228 364.017 240.367C364.554 240.656 365.085 240.957 365.616 241.259C365.821 241.373 366.027 241.494 366.232 241.614C366.799 241.939 367.36 242.277 367.921 242.614C368.181 242.771 368.44 242.934 368.7 243.096C369.098 243.343 369.49 243.59 369.882 243.843C370.154 244.018 370.419 244.193 370.691 244.368C371.119 244.651 371.542 244.934 371.964 245.223C372.175 245.368 372.386 245.506 372.591 245.651C380.26 251.013 387.073 257.502 392.775 264.895Z" fill="white"/>
<path d="M348.721 218.255C346.121 217.912 343.4 217.9 340.389 218.376C341.608 217.52 342.392 216.821 342.832 216.255C341.119 215.737 339.387 215.261 337.637 214.833C337.511 214.875 337.384 214.911 337.263 214.96C334.892 215.791 334.542 215.875 334.934 217.37C334.011 217.002 333.13 216.568 332.321 216.074H320.96C328.158 224.021 314.208 223.497 309.109 223.515C308.18 223.515 307.963 221.653 308.494 221.165C308.741 220.936 314.485 221.153 313.405 221.165C318.045 221.159 317.46 220.792 317.46 216.08C312.85 219.472 313.007 216.08 307.782 216.08C302.876 216.08 300.469 216.351 296.166 218.279C297.566 219.472 298.966 220.665 300.372 221.852C298.61 221.454 292.854 219.201 291.279 219.87C290.549 220.183 290.356 222.129 289.451 222.129C285.794 222.129 275.85 224.124 275.85 219.942C275.85 219.924 275.784 219.906 275.669 219.888C266.649 223.744 258.322 228.907 250.931 235.149C255.661 234.372 260.627 234.643 261.604 234.643C262.039 234.643 265.044 242.385 265.074 242.982C265.237 246.362 262.926 247.699 261.218 250.911C258.105 256.761 256.729 264.419 257.079 270.986C257.091 271.221 261.001 274.74 261.001 276.131C261.001 281.964 261.61 282.054 265.623 286.35V279.198C268.012 285.458 270.903 287.868 273.063 293.995C275.513 300.948 285.203 295.61 288.491 300.189C289.939 302.208 292.643 301.28 293.934 303.25L297.44 308.594C299.551 311.811 302.128 310.697 305.905 310.697C309.531 310.697 302.605 323.205 302.605 324.259C302.605 328.597 308.536 338.466 308.494 340.207C308.385 345.359 314.823 346.076 318.317 349.251C321.116 351.811 319.119 359.053 319.035 362.265C318.962 364.976 319.548 367.404 320.374 369.742C321.135 371.893 322.106 373.965 322.975 376.092C323.126 376.466 323.277 376.839 323.421 377.213C323.482 377.375 323.542 377.544 323.602 377.713C323.717 378.026 323.832 378.345 323.934 378.665C323.995 378.84 324.049 379.02 324.103 379.195C324.206 379.526 324.302 379.864 324.393 380.201C324.435 380.364 324.483 380.521 324.52 380.683C324.646 381.183 324.755 381.683 324.845 382.201C325.304 384.84 324.29 387.678 324.876 390.203C325.479 392.799 327.712 394.414 327.675 397.282C327.627 401.71 340.099 402.542 342.513 402.542C342.501 402.536 333.407 397.824 333.407 398.391C333.407 394.185 335.574 394.48 335.574 391.914C335.574 388.865 332.804 386.359 334.536 382.051C336.406 377.394 336.195 377.532 341.252 377.532C341.149 375.387 340.823 373.278 340.274 371.206C344.793 364.175 355.304 357.403 358.092 355.511C361.875 352.932 359.757 345.967 361.393 342.262C362.829 339.002 367.185 335.99 367.396 331.977C367.408 331.766 367.402 331.567 367.384 331.375C367.378 331.326 367.372 331.284 367.366 331.236C367.348 331.091 367.324 330.953 367.294 330.82C367.282 330.784 367.276 330.748 367.264 330.712C367.227 330.573 367.179 330.441 367.125 330.314C367.119 330.296 367.107 330.272 367.101 330.254C367.034 330.109 366.962 329.971 366.871 329.85C365.996 328.555 364.186 328.193 362.605 328.248C360.373 328.32 360.15 324.59 358.46 324.59C353.766 324.59 348.89 323.789 344.824 320.783C344.148 320.283 343.394 314.3 342.247 312.818C340.6 310.691 335.326 314.426 333.281 311.534C332.508 310.444 330.674 306.16 329.425 306.16C327.724 306.16 318.347 304.34 316.374 306.118C316.676 305.847 313.176 304.78 312.675 304.78C312.892 304.78 300.625 311.125 300.625 307.829C300.625 303.557 302.713 298.038 297.639 298.038C289.487 298.038 296.42 295.923 296.42 292.194C296.42 287.41 288.528 293.507 284.364 293.513C284.473 293.513 279.682 285.663 281.981 285.663C283.628 285.663 283.888 282.307 285.112 280.879C288.334 277.119 293.831 276.728 297.699 277.433C299.268 277.722 304.946 284.301 304.964 285.657C304.958 285.332 307.281 283.855 307.595 283.373C308.717 281.656 308.083 280.915 308.361 279.198C309.302 273.432 309.538 272.293 314.141 268.793C317.526 266.22 322.257 263.262 324.912 259.93C326.939 257.388 328.834 256.068 331.778 254.622C331.477 254.767 334.578 256.508 335.224 256.508C337.885 256.508 338.53 254.261 339.984 252.242H335.362C340.582 248.26 331.133 246.193 341.595 246.193C346.736 246.193 347.207 246.265 350.351 242.62C345.355 242.62 346.567 242.59 346.567 237.505C346.567 236.662 345.155 233.553 343.804 234.878C340.117 238.499 340.25 234.215 338.639 231.811C336.551 228.697 334.3 231.902 333.432 233.788C332.352 236.125 323.482 239.783 323.5 242.843C323.512 244.633 320.586 244.56 320.634 242.566C320.712 239.572 310.346 236.71 310.177 235.541C309.954 233.999 315.306 229.835 319.964 229.835C322.106 229.835 321.056 227.359 321.714 227.359C326.155 227.359 331.386 225.979 333.812 222.406C333.208 222.406 327.506 222.449 327.506 222.376C327.506 220.346 326.637 219.105 328.967 219.105C334.439 219.105 336.062 223.37 342.072 223.37C339.924 224.931 337.776 226.485 335.628 228.046C338.645 228.046 343.164 233.047 345.481 231.498C349.765 228.63 346.875 226.015 350.435 225.425C350.815 225.823 351.328 226.208 352.179 226.509C353.289 226.901 357.302 227.618 357.977 228.63C358.798 229.853 360.886 237.101 359.353 237.728C356.867 238.752 349.578 246.633 355.154 248.597C359.462 250.115 360.566 248.199 364.397 245.808C367.957 243.584 368.929 244.398 372.941 245.814C372.978 245.826 377.105 245.675 378.655 246.223C382.04 247.416 381.793 245.283 382.149 245.41C383.561 245.91 386.282 246.265 388.05 245.494C377.515 233.432 364.029 223.991 348.721 218.255Z" fill="#CFF593"/>
<path d="M307.993 286.47C307.329 287.133 306.665 287.796 306.002 288.458C312.186 288.458 315.946 290.447 321.43 290.447C317.756 284.693 314.871 286.47 307.993 286.47Z" fill="#CFF593"/>
<path d="M328.393 291.459C323.433 291.309 323.198 292.062 320.163 295.454C322.776 295.454 325.394 295.46 328.007 295.466C330.276 295.466 329.962 291.508 328.393 291.459Z" fill="#CFF593"/>
<path d="M335.435 296.623C335.435 289.676 328.357 296.623 335.435 296.623V296.623Z" fill="#CFF593"/>
<g opacity="0.08">
<path opacity="0.08" d="M365.58 226.383C375.355 241.614 381.021 259.731 381.021 279.162C381.021 333.278 337.088 377.152 282.886 377.152C264.06 377.152 246.484 371.856 231.544 362.68C248.982 389.865 279.501 407.886 314.238 407.886C368.434 407.886 412.373 364.018 412.373 309.895C412.367 274.577 393.65 243.62 365.58 226.383Z" fill="black"/>
</g>
<path d="M435.132 27.8828C435.132 27.8828 397.264 69.7746 397.264 104.72C397.264 139.665 423.457 147.967 435.132 147.967C446.808 147.967 473.001 139.665 473.001 104.72C473.007 69.7746 435.132 27.8828 435.132 27.8828Z" fill="#283773"/>
<path opacity="0.47" d="M410.961 118.493C410.955 118.469 410.949 118.445 410.943 118.421C410.581 116.728 410.056 115.282 410.02 113.528C409.959 110.98 410.026 108.431 410.188 105.889C410.526 100.647 411.299 95.4412 412.367 90.3019C414.563 79.7762 418.008 69.5217 422.154 59.6045C424.018 55.146 426.033 50.7478 428.175 46.4219C429.189 44.3794 430.227 42.349 431.301 40.3306C431.578 39.8064 434.62 34.7635 434.445 34.5888C434.378 34.5225 434.342 34.4863 434.342 34.4863C434.342 34.4863 400.22 76.4866 401.988 109.931C402.103 112.094 402.32 114.245 402.664 116.384C402.827 117.408 403.02 118.427 403.243 119.445C403.437 120.318 403.31 121.192 403.774 121.987C404.541 123.301 405.995 124.193 407.515 124.283C408.855 124.367 410.044 123.952 410.55 122.68C411.081 121.355 411.238 119.891 410.961 118.493Z" fill="white"/>
<path opacity="0.47" d="M415.848 127.874C415.209 127.247 414.285 126.855 413.386 126.855C412.705 126.855 411.926 127.102 411.335 127.53C409.965 128.32 409.283 129.844 409.651 131.471C410.188 133.844 413.067 134.796 415.058 133.634C417.103 132.441 417.574 129.567 415.848 127.874Z" fill="white"/>
<path d="M150.539 98.6773C150.533 103.299 149.833 107.914 148.451 111.944C146.526 117.56 143.347 122.711 139.244 126.995C130.85 135.755 118.855 140.581 106.739 140.298C103.644 140.226 100.488 139.605 97.5254 138.744C91.6846 137.051 86.2421 134.05 81.6564 130.068C72.5995 122.211 67.0604 110.631 67.0604 98.6111C67.0604 86.2899 72.6478 74.4026 82.133 66.5159C86.7369 62.69 92.1613 59.8643 97.9478 58.3098C113.008 54.255 129.197 58.9605 139.726 70.4683C143.672 74.7822 146.701 79.9215 148.542 85.4705C149.881 89.5073 150.551 94.0983 150.539 98.6773Z" fill="#FFD500"/>
<path d="M96.4936 56.0321C100.126 55.5802 110.07 54.6102 119.585 55.9959C120.231 56.0923 120.726 55.4416 120.478 54.8451L108.833 26.4373C108.549 25.7384 107.554 25.7384 107.27 26.4373L95.6127 54.8813C95.3653 55.4717 95.854 56.1104 96.4936 56.0321Z" fill="#FFD500"/>
<path d="M123.863 57.123C127.14 58.7497 135.967 63.4251 143.129 69.8297C143.612 70.2635 144.384 69.9984 144.517 69.3597L150.527 39.2588C150.672 38.5178 149.851 37.9695 149.224 38.3973L123.767 55.6709C123.23 56.0324 123.284 56.8338 123.863 57.123Z" fill="#FFD500"/>
<path d="M146.454 73.8362C148.053 77.1259 152.186 86.2055 153.948 95.6467C154.069 96.2854 154.841 96.5505 155.33 96.1227L178.494 75.945C179.061 75.4509 178.741 74.511 177.987 74.4688L147.263 72.6372C146.623 72.589 146.17 73.2578 146.454 73.8362Z" fill="#FFD500"/>
<path d="M153.387 100.647C152.868 104.268 151.203 114.101 147.365 122.904C147.106 123.5 147.601 124.151 148.246 124.072L178.753 120.301C179.502 120.21 179.761 119.252 179.164 118.794L154.733 100.099C154.226 99.7073 153.484 100.009 153.387 100.647Z" fill="#FFD500"/>
<path d="M142.448 127.88C139.672 130.26 131.918 136.556 123.224 140.653C122.632 140.93 122.578 141.744 123.115 142.111L148.542 159.367C149.169 159.788 149.99 159.246 149.845 158.505L143.823 128.362C143.697 127.729 142.942 127.464 142.448 127.88Z" fill="#FFD500"/>
<path d="M91.4312 57.2254C88.3961 59.2679 80.2565 65.0519 73.9933 72.3361C73.5709 72.8302 72.7684 72.6675 72.5572 72.0529L62.6617 42.9944C62.4203 42.2774 63.1625 41.6327 63.8383 41.9701L91.3346 55.7794C91.9139 56.0626 91.9682 56.8639 91.4312 57.2254Z" fill="#FFD500"/>
<path d="M70.8014 75.9509C69.2628 79.2707 65.3106 88.4287 63.7297 97.9C63.6211 98.5386 62.8548 98.8158 62.354 98.4001L38.8038 78.6682C38.2245 78.1802 38.5262 77.2403 39.2805 77.18L69.9627 74.7519C70.6083 74.7098 71.0729 75.3665 70.8014 75.9509Z" fill="#FFD500"/>
<path d="M63.5065 102.575C64.3754 106.124 66.9941 115.752 71.6703 124.145C71.9841 124.711 71.5557 125.41 70.91 125.392L40.1795 124.609C39.4253 124.591 39.0693 123.663 39.6244 123.151L62.1127 102.166C62.5833 101.72 63.3496 101.949 63.5065 102.575Z" fill="#FFD500"/>
<path d="M74.476 127.88C77.2516 130.26 85.0051 136.556 93.6999 140.653C94.2912 140.93 94.3455 141.744 93.8085 142.111L68.3818 159.367C67.7543 159.788 66.9336 159.246 67.0785 158.505L73.1003 128.362C73.2209 127.729 73.9812 127.464 74.476 127.88Z" fill="#FFD500"/>
<path d="M120.249 141.81C116.617 142.268 106.679 143.274 97.1574 141.913C96.5118 141.822 96.017 142.467 96.2644 143.07L107.988 171.447C108.278 172.146 109.267 172.14 109.551 171.441L121.13 142.967C121.377 142.365 120.889 141.732 120.249 141.81Z" fill="#FFD500"/>
<path d="M360.747 222.828L392.069 251.537L403.768 284.554L412.204 282.651L404.987 241.18L360.608 212.839L360.747 222.828Z" fill="#283773"/>
<path d="M405.494 282.44L410.955 280.945L414.472 289.669L410.556 294.086L405.548 293.224L406.538 288.856L405.512 289.133L404.776 290.453L403.467 289.694L405.494 282.44Z" fill="#EBCEB1"/>
<path d="M442.282 433.052L442.258 444.174L448.721 444.186L448.751 431.859L442.282 433.052Z" fill="#EDD3B8"/>
<path d="M471.661 431.414L472.941 443.428L479.922 442.692L478.504 429.365L471.661 431.414Z" fill="#EDD3B8"/>
<path d="M479.825 442.289L473.55 443.693L471.553 445.488L471.426 450.224L487.766 453.255C489.347 451.345 488.695 448.459 486.45 447.404L485.708 447.055L479.825 442.289Z" fill="#112033"/>
<path d="M448.721 444.187L442.258 444.169L439.996 447.145L440.448 451.863L457.035 452.887L457.512 451.809C458.447 449.694 457.09 447.278 454.797 446.971L454.429 446.922L448.721 444.187Z" fill="#112033"/>
<path d="M427.638 326L433.769 380.834L436.2 442.228L456.987 442.301L465.302 287.705L431.802 288.229L427.638 326Z" fill="#283773"/>
<path d="M489.654 318.704L494.162 372.194L488.454 442.132L468.27 441.53L465.356 373.574L461.941 324.783L458.453 288.417L482.619 287.724L489.654 318.704Z" fill="#283773"/>
<path d="M477.025 199.12L434.143 204.85L429.436 216.707L428.682 257.749L424.428 292.917L479.204 293.164L492.87 289.712L488.574 252.845L486.511 212.176L477.025 199.12Z" fill="#B7BCC7"/>
<path d="M512.951 197.481L514.297 186.962L509.886 186.154L507.394 193.143L505.475 191.788L505.403 200.94L509.886 202.404L512.951 197.481Z" fill="#EBCEB1"/>
<path d="M475.427 208.2L497.529 223.835L504.401 197.825L513.144 201.187L508.758 254.689L501.125 256.171L469.61 234.903L475.427 208.2Z" fill="#B7BCC7"/>
<path d="M420.911 145.413C422.781 142.895 424.652 140.376 426.504 137.846C427.608 138.647 428.712 139.442 429.817 140.244C428.936 142.274 428.055 144.298 427.168 146.329C427.843 146.461 428.519 146.582 429.195 146.715C427.288 148.667 425.339 150.571 423.403 152.486C422.154 151.836 420.917 151.155 419.649 150.546C420.078 148.841 420.561 147.136 420.911 145.413Z" fill="#EBCEB1"/>
<path d="M440.533 227.528C440.925 226.829 441.082 225.961 441.13 225.093C441.347 221.491 440.189 218.002 438.113 215.134C434.825 210.597 430.396 207.374 426.981 203.12C423.071 198.252 419.873 193.119 416.596 187.847C418.63 175.206 421.52 163.187 426.063 151.203C423.499 150.028 420.947 148.811 418.37 147.66C409.808 161.988 404.052 176.839 398.428 192.48C403.364 199.813 408.191 206.958 413.676 213.971C418.594 220.255 423.185 227.166 430.583 230.679C434.758 232.655 438.373 231.384 440.533 227.528Z" fill="#B7BCC7"/>
<path d="M468.717 167.959C466.044 165.266 462.255 163.712 458.459 163.754C445.287 163.892 444.286 176.689 446.736 186.643C447.816 191.029 449.982 195.331 453.65 197.976C454.646 198.693 455.768 199.253 456.945 199.645V199.651C456.74 200.332 456.782 208.58 456.197 208.501C459.256 208.911 462.424 208.513 465.284 207.357C465.193 204.898 465.507 201.868 465.266 199.211C465.634 199.018 465.996 198.807 466.334 198.56C469.857 196 471.004 191.33 471.661 187.028C472.524 181.437 473.037 172.309 468.717 167.959Z" fill="#EACDB0"/>
<path d="M483.174 209.923C483.325 206.579 480.628 204.483 481.044 201.157C482.009 193.373 482.957 185.932 481.629 178.087C480.718 172.695 479.342 167.29 476.579 162.633C473.815 157.982 469.507 154.12 464.372 152.999C459.262 151.884 452.238 152.981 448.159 156.385C444.081 159.789 442.874 165.356 441.329 170.562C439.169 177.864 438.795 185.347 436.888 192.553C434.644 201.036 433.033 210.526 433.539 219.322C436.025 220.226 437.715 217.364 439.821 216.533C446.476 213.906 452.806 216.852 459.039 219.045C466.038 221.503 481.002 221.057 488.194 222.883C488.876 216.249 482.963 214.701 483.174 209.923ZM459.672 195.313C458.363 194.644 457.102 194.186 455.792 193.379C454.549 192.613 453.288 191.878 452.051 191.101C451.514 190.764 451.122 190.173 450.712 189.691C450.253 189.155 449.801 188.613 449.372 188.046C448.739 187.215 448.546 186.426 448.353 185.42C448.153 184.365 447.96 183.305 447.797 182.244C447.46 180.081 447.224 177.9 447.26 175.707C447.285 173.966 447.496 172.243 447.954 170.592C448.316 170.23 448.727 169.905 449.197 169.586C449.396 169.453 449.596 169.327 449.795 169.2C452.486 167.555 455.569 166.736 458.713 166.483C460.1 166.368 461.506 166.356 462.888 166.573C466.34 167.122 469.441 169.266 471.366 172.171C472.072 176.207 471.981 180.612 471.444 184.221C470.714 185.956 469.851 187.619 468.813 189.173C467.57 191.029 465.772 192.402 464.21 193.969C462.792 195.391 462.206 196.638 459.932 195.439C459.841 195.397 459.757 195.355 459.672 195.313Z" fill="#D1E7F5"/>
<g opacity="0.17">
<path opacity="0.17" d="M467.118 165.428C464.071 163.994 460.342 163.663 456.993 163.765C453.608 163.874 448.787 164.597 447.538 168.176C447.122 169.368 447.037 170.652 447.182 171.953C447.266 171.537 447.369 171.128 447.49 170.724C447.87 170.363 448.292 170.037 448.787 169.718C448.992 169.585 449.197 169.459 449.408 169.332C452.208 167.687 455.418 166.868 458.688 166.615C460.137 166.501 461.597 166.489 463.033 166.705C466.14 167.175 468.976 169.272 470.979 171.592C470.949 169.236 469.893 166.73 467.118 165.428Z" fill="black"/>
</g>
<path d="M575.323 72.9444L584.392 75.6376C587.614 76.5955 592.888 78.162 596.116 79.12L605.185 81.8192C608.407 82.7772 611.653 80.8251 612.395 77.4752L614.483 68.0641C615.219 64.7203 616.432 59.2435 617.174 55.8997L619.262 46.4886C620.004 43.1447 617.892 42.0422 614.574 44.0364L608.884 47.4647C606.796 43.8316 604.714 40.2226 603.906 38.8971C602.071 35.8967 598.548 33.5951 591.633 33.6373C586.498 33.6674 572.849 33.7457 564.221 33.8L575.667 54.3392C575.921 54.5983 576.162 54.9296 576.373 55.3695C576.916 56.4961 578.992 60.3823 581.061 64.2142L575.492 67.5641C572.18 69.5704 572.101 71.9864 575.323 72.9444Z" fill="#FFD500"/>
<path d="M543.597 40.6444C540.659 45.2053 533.201 57.3457 533.201 57.3457C531.529 60.069 532.38 63.6298 535.095 65.2565L553.378 76.216C556.093 77.8427 559.653 76.9269 561.282 74.1795C561.282 74.1795 571.594 56.8637 572.548 55.261C573.531 53.5981 574.714 53.3451 575.667 54.3332L564.221 33.7939C561.234 33.812 558.845 33.8241 557.62 33.8301C552.859 33.8723 547.417 34.7158 543.597 40.6444Z" fill="#F2CA00"/>
<path d="M511.262 117.397C513.319 121.482 519.021 131.989 523.203 139.689L536.157 118.047C537.684 115.384 540.514 110.45 542.879 106.359L549.51 110.124C552.877 112.04 554.959 110.878 554.138 107.558L551.815 98.201C550.995 94.8752 549.649 89.4346 548.823 86.1088L546.506 76.752C545.679 73.4262 542.39 71.5585 539.193 72.5948L530.19 75.5229C526.992 76.5652 521.755 78.2643 518.557 79.3066L509.554 82.2348C506.356 83.2771 506.489 85.6931 509.856 87.603L514.743 90.3806C512.245 95.315 509.307 101.147 508.565 102.816C507.225 105.841 508.052 111.052 511.262 117.397Z" fill="#FFD500"/>
<path d="M536.157 118.048L523.203 139.69C525.532 143.979 527.39 147.396 527.879 148.348C529.249 151.005 531.204 156.204 543.567 156.132C555.924 156.06 561.542 156.029 561.542 156.029C564.686 156.011 567.244 153.366 567.226 150.155L567.105 128.477C567.087 125.26 564.499 122.645 561.349 122.669C561.349 122.669 540.303 122.796 536.797 122.814C534.583 122.826 534.299 121.325 535.077 119.934C535.186 119.741 535.584 119.048 536.157 118.048Z" fill="#F2CA00"/>
<path d="M611.539 120.361L622.249 142.22C625.996 135.165 632.361 122.91 634.962 117.608C638.444 110.516 639.427 104.377 637.822 101.148C636.217 97.9121 628.283 82.1989 628.283 82.1989C626.841 79.3431 623.468 78.3851 620.789 80.0661L602.627 91.4835C599.948 93.1644 599.006 96.8397 600.539 99.6473C600.539 99.6473 606.06 109.781 609.131 115.457C610.085 117.216 610.809 118.554 611.05 119.018C611.303 119.5 611.466 119.952 611.539 120.361Z" fill="#FFD500"/>
<path d="M619.6 147.119C620.022 146.384 620.988 144.594 622.249 142.22L611.538 120.362C611.762 121.633 611.134 122.494 609.596 122.507C608.54 122.513 603.326 122.543 598.517 122.573L598.457 115.795C598.421 111.86 596.412 110.583 593.986 112.957L587.168 119.633C584.742 122.006 580.772 125.887 578.352 128.26L571.534 134.936C569.108 137.31 569.145 141.154 571.606 143.486L578.545 150.041C581.007 152.366 585.044 156.174 587.512 158.506L594.445 165.061C596.912 167.387 598.904 166.073 598.867 162.139L598.807 155.698C601.522 155.68 604.521 155.662 607.291 155.65C614.996 155.596 617.91 150.023 619.6 147.119Z" fill="#F2CA00"/>
</svg>
